KayPhoDuMaster-Bold.ufo
<glyph name="exclam" format="2">
  <advance width="282"/>
  <unicode hex="0021"/>
  <outline>
    <contour>
      <point x="131" y="1231" type="curve" smooth="yes"/>
      <point x="56" y="1231"/>
      <point x="19" y="1191"/>
      <point x="19" y="1125" type="curve"/>
      <point x="92" y="237" type="line"/>
      <point x="170" y="237" type="line"/>
      <point x="242" y="1125" type="line"/>
      <point x="242" y="1191"/>
      <point x="204" y="1231"/>
    </contour>
    <contour>
      <point x="210" y="0" type="line"/>
      <point x="210" y="156" type="line"/>
      <point x="53" y="156" type="line"/>
      <point x="53" y="0" type="line"/>
    </contour>
  </outline>
</glyph>
<glyph name="percent" format="2">
  <advance width="1215"/>
  <unicode hex="0025"/>
  <outline>
    <contour>
      <point x="339" y="0" type="line"/>
      <point x="1079" y="1354" type="line"/>
      <point x="861" y="1358" type="line"/>
      <point x="127" y="0" type="line"/>
    </contour>
    <contour>
      <point x="406" y="850" type="line"/>
      <point x="406" y="1050" type="line"/>
      <point x="205" y="1050" type="line"/>
      <point x="205" y="850" type="line"/>
    </contour>
    <contour>
      <point x="993" y="302" type="line"/>
      <point x="993" y="502" type="line"/>
      <point x="792" y="502" type="line"/>
      <point x="792" y="302" type="line"/>
    </contour>
  </outline>
</glyph>
<glyph name="parenleft" format="2">
  <advance width="795"/>
  <unicode hex="0028"/>
  <outline>
    <contour>
      <point x="716" y="-352" type="line"/>
      <point x="535" y="-205"/>
      <point x="389" y="45"/>
      <point x="317" y="296" type="curve" smooth="yes"/>
      <point x="280" y="421"/>
      <point x="262" y="534"/>
      <point x="262" y="635" type="curve"/>
      <point x="271" y="782"/>
      <point x="340" y="1021"/>
      <point x="486" y="1236" type="curve" smooth="yes"/>
      <point x="561" y="1345"/>
      <point x="649" y="1432"/>
      <point x="755" y="1500" type="curve"/>
      <point x="500" y="1500" type="line"/>
      <point x="301" y="1322"/>
      <point x="178" y="1119"/>
      <point x="125" y="922" type="curve" smooth="yes"/>
      <point x="100" y="824"/>
      <point x="87" y="728"/>
      <point x="87" y="635" type="curve" smooth="yes"/>
      <point x="87" y="227"/>
      <point x="214" y="-102"/>
      <point x="467" y="-352" type="curve"/>
    </contour>
  </outline>
</glyph>
<glyph name="parenright" format="2">
  <advance width="864"/>
  <unicode hex="0029"/>
  <outline>
    <contour>
      <point x="100" y="-352" type="curve"/>
      <point x="330" y="-352" type="line"/>
      <point x="571" y="-96"/>
      <point x="682" y="241"/>
      <point x="682" y="635" type="curve" smooth="yes"/>
      <point x="682" y="772"/>
      <point x="659" y="916"/>
      <point x="599" y="1068" type="curve" smooth="yes"/>
      <point x="539" y="1219"/>
      <point x="442" y="1366"/>
      <point x="300" y="1500" type="curve"/>
      <point x="63" y="1500" type="line"/>
      <point x="257" y="1367"/>
      <point x="394" y="1132"/>
      <point x="462" y="911" type="curve" smooth="yes"/>
      <point x="497" y="800"/>
      <point x="516" y="708"/>
      <point x="520" y="635" type="curve"/>
      <point x="520" y="486"/>
      <point x="481" y="301"/>
      <point x="408" y="115" type="curve" smooth="yes"/>
      <point x="335" y="-70"/>
      <point x="232" y="-238"/>
    </contour>
  </outline>
</glyph>
<glyph name="asterisk" format="2">
  <advance width="1176"/>
  <unicode hex="002A"/>
  <outline>
    <contour>
      <point x="206" y="69" type="line"/>
      <point x="1055" y="915" type="line"/>
      <point x="932" y="1043" type="line"/>
      <point x="81" y="193" type="line"/>
    </contour>
    <contour>
      <point x="969" y="78" type="line"/>
      <point x="1094" y="204" type="line"/>
      <point x="255" y="1043" type="line"/>
      <point x="128" y="918" type="line"/>
    </contour>
    <contour>
      <point x="476" y="1048" type="line"/>
      <point x="476" y="0" type="line"/>
      <point x="676" y="0" type="line"/>
      <point x="676" y="1048" type="line"/>
    </contour>
    <contour>
      <point x="1129" y="467" type="line"/>
      <point x="1129" y="666" type="line"/>
      <point x="37" y="666" type="line"/>
      <point x="37" y="467" type="line"/>
    </contour>
  </outline>
</glyph>
<glyph name="plus" format="2">
  <advance width="1192"/>
  <unicode hex="002B"/>
  <outline>
    <contour>
      <point x="1041" y="425" type="line"/>
      <point x="1041" y="609" type="line"/>
      <point x="687" y="609" type="line"/>
      <point x="687" y="1046" type="line"/>
      <point x="488" y="1050" type="line"/>
      <point x="488" y="609" type="line"/>
      <point x="127" y="609" type="line"/>
      <point x="127" y="425" type="line"/>
      <point x="488" y="425" type="line"/>
      <point x="488" y="0" type="line"/>
      <point x="687" y="0" type="line"/>
      <point x="687" y="425" type="line"/>
    </contour>
  </outline>
</glyph>
<glyph name="comma" format="2">
  <advance width="608"/>
  <unicode hex="002C"/>
  <outline>
    <contour>
      <point x="404" y="5" type="line"/>
      <point x="404" y="205" type="line"/>
      <point x="205" y="205" type="line"/>
      <point x="205" y="69" type="line"/>
      <point x="52" y="-189" type="line"/>
      <point x="315" y="5" type="line"/>
    </contour>
  </outline>
</glyph>
<glyph name="period" format="2">
  <advance width="499"/>
  <unicode hex="002E"/>
  <outline>
    <contour>
      <point x="347" y="5" type="line"/>
      <point x="347" y="205" type="line"/>
      <point x="147" y="205" type="line"/>
      <point x="147" y="5" type="line"/>
    </contour>
  </outline>
</glyph>
<glyph name="slash" format="2">
  <advance width="1266"/>
  <unicode hex="002F"/>
  <outline>
    <contour>
      <point x="339" y="0" type="line"/>
      <point x="1079" y="1354" type="line"/>
      <point x="861" y="1358" type="line"/>
      <point x="127" y="0" type="line"/>
    </contour>
  </outline>
</glyph>
<glyph name="three" format="2">
  <advance width="1256" height="2352"/>
  <unicode hex="0033"/>
  <outline>
    <contour>
      <point x="250" y="1432" type="curve"/>
      <point x="331" y="1334" type="line"/>
      <point x="394" y="1393"/>
      <point x="493" y="1450"/>
      <point x="624" y="1450" type="curve" smooth="yes"/>
      <point x="632" y="1450" type="line" smooth="yes"/>
      <point x="842" y="1450"/>
      <point x="950" y="1332"/>
      <point x="950" y="1179" type="curve" smooth="yes"/>
      <point x="950" y="1174" type="line" smooth="yes"/>
      <point x="950" y="1058"/>
      <point x="861" y="900"/>
      <point x="592" y="900" type="curve"/>
      <point x="695" y="797" type="line"/>
      <point x="971" y="840"/>
      <point x="1078" y="1005"/>
      <point x="1078" y="1164" type="curve" smooth="yes"/>
      <point x="1078" y="1189" type="line" smooth="yes"/>
      <point x="1078" y="1391"/>
      <point x="918" y="1574"/>
      <point x="638" y="1574" type="curve" smooth="yes"/>
      <point x="618" y="1574" type="line" smooth="yes"/>
      <point x="462" y="1574"/>
      <point x="334" y="1504"/>
    </contour>
    <contour>
      <point x="238" y="366" type="curve"/>
      <point x="128" y="299" type="line"/>
      <point x="208" y="128"/>
      <point x="396" y="-12"/>
      <point x="618" y="-12" type="curve" smooth="yes"/>
      <point x="638" y="-12" type="line" smooth="yes"/>
      <point x="948" y="-12"/>
      <point x="1128" y="222"/>
      <point x="1128" y="424" type="curve" smooth="yes"/>
      <point x="1128" y="451" type="line" smooth="yes"/>
      <point x="1128" y="669"/>
      <point x="974" y="900"/>
      <point x="625" y="900" type="curve" smooth="yes"/>
      <point x="603" y="900"/>
      <point x="447" y="900"/>
      <point x="428" y="900" type="curve"/>
      <point x="428" y="776" type="line"/>
      <point x="448" y="776"/>
      <point x="607" y="776"/>
      <point x="625" y="776" type="curve" smooth="yes"/>
      <point x="918" y="776"/>
      <point x="1000" y="590"/>
      <point x="1000" y="444" type="curve" smooth="yes"/>
      <point x="1000" y="431" type="line" smooth="yes"/>
      <point x="1000" y="288"/>
      <point x="882" y="112"/>
      <point x="632" y="112" type="curve" smooth="yes"/>
      <point x="624" y="112" type="line" smooth="yes"/>
      <point x="439" y="112"/>
      <point x="296" y="231"/>
    </contour>
  </outline>
</glyph>
<glyph name="four" format="2">
  <advance width="1200" height="2352"/>
  <unicode hex="0034"/>
  <outline>
    <contour>
      <point x="120" y="400" type="line"/>
      <point x="188" y="400" type="line"/>
      <point x="781" y="1342" type="line"/>
      <point x="904" y="1342" type="line"/>
      <point x="904" y="1574" type="line"/>
      <point x="781" y="1574" type="line"/>
      <point x="120" y="524" type="line"/>
    </contour>
    <contour>
      <point x="120" y="400" type="line"/>
      <point x="1080" y="400" type="line"/>
      <point x="1080" y="524" type="line"/>
      <point x="120" y="524" type="line"/>
    </contour>
    <contour>
      <point x="776" y="0" type="line"/>
      <point x="904" y="0" type="line"/>
      <point x="904" y="1472" type="line"/>
      <point x="776" y="1472" type="line"/>
    </contour>
  </outline>
</glyph>
<glyph name="six" format="2">
  <advance width="1200" height="2352"/>
  <unicode hex="0036"/>
  <outline>
    <contour>
      <point x="620" y="-12" type="curve" smooth="yes"/>
      <point x="910" y="-12"/>
      <point x="1080" y="230"/>
      <point x="1080" y="485" type="curve" smooth="yes"/>
      <point x="1080" y="740"/>
      <point x="930" y="940"/>
      <point x="620" y="940" type="curve" smooth="yes"/>
      <point x="454" y="940"/>
      <point x="336" y="882"/>
      <point x="228" y="803" type="curve"/>
      <point x="228" y="666" type="line"/>
      <point x="334" y="752"/>
      <point x="469" y="816"/>
      <point x="620" y="816" type="curve" smooth="yes"/>
      <point x="865" y="816"/>
      <point x="952" y="660"/>
      <point x="952" y="485" type="curve" smooth="yes"/>
      <point x="952" y="310"/>
      <point x="845" y="112"/>
      <point x="620" y="112" type="curve" smooth="yes"/>
      <point x="432" y="112"/>
      <point x="248" y="260"/>
      <point x="248" y="780" type="curve" smooth="yes"/>
      <point x="248" y="1276"/>
      <point x="426" y="1450"/>
      <point x="650" y="1450" type="curve" smooth="yes"/>
      <point x="763" y="1450"/>
      <point x="868" y="1416"/>
      <point x="965" y="1338" type="curve"/>
      <point x="1040" y="1438" type="line"/>
      <point x="920" y="1541"/>
      <point x="801" y="1574"/>
      <point x="650" y="1574" type="curve"/>
      <point x="350" y="1574"/>
      <point x="120" y="1354"/>
      <point x="120" y="780" type="curve" smooth="yes"/>
      <point x="120" y="180"/>
      <point x="364" y="-12"/>
    </contour>
  </outline>
</glyph>
<glyph name="eight" format="2">
  <advance width="1200" height="2352"/>
  <unicode hex="0038"/>
  <outline>
    <contour>
      <point x="685" y="807" type="line"/>
      <point x="951" y="890"/>
      <point x="1030" y="1018"/>
      <point x="1030" y="1200" type="curve" smooth="yes"/>
      <point x="1030" y="1384"/>
      <point x="880" y="1574"/>
      <point x="600" y="1574" type="curve" smooth="yes"/>
      <point x="320" y="1574"/>
      <point x="170" y="1382"/>
      <point x="170" y="1200" type="curve" smooth="yes"/>
      <point x="170" y="1010"/>
      <point x="243" y="907"/>
      <point x="560" y="778" type="curve" smooth="yes"/>
      <point x="877" y="649"/>
      <point x="952" y="546"/>
      <point x="952" y="400" type="curve" smooth="yes"/>
      <point x="952" y="254"/>
      <point x="840" y="112"/>
      <point x="600" y="112" type="curve" smooth="yes"/>
      <point x="360" y="112"/>
      <point x="248" y="254"/>
      <point x="248" y="400" type="curve" smooth="yes"/>
      <point x="248" y="546"/>
      <point x="321" y="662"/>
      <point x="630" y="777" type="curve"/>
      <point x="530" y="867" type="line"/>
      <point x="263" y="777"/>
      <point x="120" y="620"/>
      <point x="120" y="400" type="curve"/>
      <point x="120" y="180"/>
      <point x="290" y="-12"/>
      <point x="600" y="-12" type="curve" smooth="yes"/>
      <point x="910" y="-12"/>
      <point x="1080" y="180"/>
      <point x="1080" y="400" type="curve" smooth="yes"/>
      <point x="1080" y="620"/>
      <point x="951" y="753"/>
      <point x="634" y="882" type="curve" smooth="yes"/>
      <point x="317" y="1011"/>
      <point x="298" y="1080"/>
      <point x="298" y="1200" type="curve" smooth="yes"/>
      <point x="298" y="1320"/>
      <point x="400" y="1450"/>
      <point x="600" y="1450" type="curve" smooth="yes"/>
      <point x="800" y="1450"/>
      <point x="902" y="1320"/>
      <point x="902" y="1200" type="curve" smooth="yes"/>
      <point x="902" y="1080"/>
      <point x="874" y="997"/>
      <point x="582" y="894" type="curve"/>
    </contour>
  </outline>
</glyph>
<glyph name="nine" format="2">
  <advance width="1200" height="2352"/>
  <unicode hex="0039"/>
  <outline>
    <contour>
      <point x="530" y="-12" type="curve"/>
      <point x="850" y="-12"/>
      <point x="1080" y="208"/>
      <point x="1080" y="782" type="curve" smooth="yes"/>
      <point x="1080" y="1382"/>
      <point x="860" y="1574"/>
      <point x="580" y="1574" type="curve" smooth="yes"/>
      <point x="300" y="1574"/>
      <point x="120" y="1382"/>
      <point x="120" y="1127" type="curve" smooth="yes"/>
      <point x="120" y="872"/>
      <point x="270" y="662"/>
      <point x="580" y="662" type="curve" smooth="yes"/>
      <point x="746" y="662"/>
      <point x="864" y="720"/>
      <point x="972" y="799" type="curve"/>
      <point x="972" y="936" type="line"/>
      <point x="866" y="850"/>
      <point x="731" y="786"/>
      <point x="580" y="786" type="curve" smooth="yes"/>
      <point x="335" y="786"/>
      <point x="248" y="952"/>
      <point x="248" y="1127" type="curve" smooth="yes"/>
      <point x="248" y="1302"/>
      <point x="365" y="1450"/>
      <point x="580" y="1450" type="curve" smooth="yes"/>
      <point x="795" y="1450"/>
      <point x="952" y="1302"/>
      <point x="952" y="782" type="curve" smooth="yes"/>
      <point x="952" y="286"/>
      <point x="774" y="112"/>
      <point x="530" y="112" type="curve" smooth="yes"/>
      <point x="417" y="112"/>
      <point x="312" y="146"/>
      <point x="215" y="224" type="curve"/>
      <point x="140" y="124" type="line"/>
      <point x="260" y="21"/>
      <point x="379" y="-12"/>
    </contour>
  </outline>
</glyph>
<glyph name="colon" format="2">
  <advance width="499"/>
  <unicode hex="003A"/>
  <outline>
    <contour>
      <point x="342" y="744" type="line"/>
      <point x="342" y="942" type="line"/>
      <point x="142" y="942" type="line"/>
      <point x="142" y="744" type="line"/>
    </contour>
    <contour>
      <point x="342" y="102" type="line"/>
      <point x="342" y="302" type="line"/>
      <point x="142" y="302" type="line"/>
      <point x="142" y="102" type="line"/>
    </contour>
  </outline>
</glyph>
<glyph name="equal" format="2">
  <advance width="1192"/>
  <unicode hex="003D"/>
  <outline>
    <contour>
      <point x="1055" y="571" type="line"/>
      <point x="1055" y="749" type="line"/>
      <point x="141" y="751" type="line"/>
      <point x="141" y="571" type="line"/>
    </contour>
    <contour>
      <point x="1055" y="289" type="line"/>
      <point x="1055" y="466" type="line"/>
      <point x="141" y="468" type="line"/>
      <point x="141" y="289" type="line"/>
    </contour>
  </outline>
</glyph>
<glyph name="question" format="2">
  <advance width="1165"/>
  <unicode hex="003F"/>
  <outline>
    <contour>
      <point x="643" y="308" type="line"/>
      <point x="643" y="488" type="line" smooth="yes"/>
      <point x="643" y="557"/>
      <point x="650" y="611"/>
      <point x="740" y="675" type="curve" smooth="yes"/>
      <point x="765" y="692"/>
      <point x="826" y="723"/>
      <point x="868" y="750" type="curve" smooth="yes"/>
      <point x="893" y="767"/>
      <point x="919" y="786"/>
      <point x="945" y="809" type="curve" smooth="yes"/>
      <point x="996" y="854"/>
      <point x="1039" y="916"/>
      <point x="1065" y="1001" type="curve" smooth="yes"/>
      <point x="1079" y="1042"/>
      <point x="1085" y="1092"/>
      <point x="1085" y="1147" type="curve" smooth="yes"/>
      <point x="1085" y="1229"/>
      <point x="1059" y="1306"/>
      <point x="1014" y="1372" type="curve" smooth="yes"/>
      <point x="991" y="1404"/>
      <point x="964" y="1434"/>
      <point x="932" y="1460" type="curve" smooth="yes"/>
      <point x="869" y="1513"/>
      <point x="795" y="1551"/>
      <point x="712" y="1568" type="curve" smooth="yes"/>
      <point x="671" y="1577"/>
      <point x="630" y="1580"/>
      <point x="588" y="1576" type="curve" smooth="yes"/>
      <point x="445" y="1569"/>
      <point x="335" y="1513"/>
      <point x="259" y="1431" type="curve" smooth="yes"/>
      <point x="183" y="1349"/>
      <point x="143" y="1242"/>
      <point x="143" y="1129" type="curve" smooth="yes"/>
      <point x="143" y="1043"/>
      <point x="160" y="1005"/>
      <point x="241" y="1005" type="curve" smooth="yes"/>
      <point x="333" y="1005"/>
      <point x="339" y="1050"/>
      <point x="339" y="1137" type="curve" smooth="yes"/>
      <point x="339" y="1275"/>
      <point x="443" y="1376"/>
      <point x="594" y="1380" type="curve" smooth="yes"/>
      <point x="671" y="1380"/>
      <point x="744" y="1350"/>
      <point x="800" y="1307" type="curve" smooth="yes"/>
      <point x="852" y="1267"/>
      <point x="891" y="1204"/>
      <point x="891" y="1147" type="curve" smooth="yes"/>
      <point x="891" y="1002"/>
      <point x="812" y="941"/>
      <point x="658" y="852" type="curve" smooth="yes"/>
      <point x="530" y="780"/>
      <point x="443" y="692"/>
      <point x="443" y="564" type="curve" smooth="yes"/>
      <point x="443" y="308" type="line"/>
    </contour>
    <contour>
      <point x="644" y="5" type="line"/>
      <point x="644" y="205" type="line"/>
      <point x="444" y="205" type="line"/>
      <point x="444" y="5" type="line"/>
    </contour>
  </outline>
</glyph>
<glyph name="A" format="2">
  <advance width="1220"/>
  <unicode hex="0041"/>
  <outline>
    <component base="_latserifSW" xOffset="-34"/>
    <component base="_latserifSE" xOffset="128"/>
    <contour>
      <point x="107" y="0" type="line"/>
      <point x="236" y="0" type="line"/>
      <point x="620" y="1405" type="line"/>
      <point x="1005" y="0" type="line"/>
      <point x="1134" y="0" type="line"/>
      <point x="702" y="1574" type="line"/>
      <point x="538" y="1574" type="line"/>
    </contour>
    <contour>
      <point x="316" y="574" type="line"/>
      <point x="922" y="574" type="line"/>
      <point x="922" y="698" type="line"/>
      <point x="316" y="698" type="line"/>
    </contour>
  </outline>
</glyph>
<glyph name="C" format="2">
  <advance width="1220"/>
  <unicode hex="0043"/>
  <outline>
    <contour>
      <point x="565" y="-12" type="curve" smooth="yes"/>
      <point x="586" y="-12" type="line"/>
      <point x="586" y="112" type="line"/>
      <point x="570" y="112" type="line" smooth="yes"/>
      <point x="307" y="112"/>
      <point x="220" y="301"/>
      <point x="220" y="776" type="curve" smooth="yes"/>
      <point x="220" y="798" type="line"/>
      <point x="92" y="798" type="line"/>
      <point x="92" y="766" type="line" smooth="yes"/>
      <point x="92" y="202"/>
      <point x="247" y="-12"/>
    </contour>
    <contour>
      <point x="582" y="-12" type="line"/>
      <point x="603" y="-12" type="line" smooth="yes"/>
      <point x="891" y="-12"/>
      <point x="1026" y="202"/>
      <point x="1026" y="376" type="curve" smooth="yes"/>
      <point x="1026" y="388" type="line"/>
      <point x="898" y="388" type="line"/>
      <point x="898" y="376" type="line" smooth="yes"/>
      <point x="898" y="281"/>
      <point x="830" y="112"/>
      <point x="597" y="112" type="curve" smooth="yes"/>
      <point x="582" y="112" type="line"/>
    </contour>
    <contour>
      <point x="92" y="788" type="line"/>
      <point x="220" y="788" type="line"/>
      <point x="220" y="809" type="line" smooth="yes"/>
      <point x="220" y="1284"/>
      <point x="307" y="1462"/>
      <point x="570" y="1462" type="curve" smooth="yes"/>
      <point x="586" y="1462" type="line"/>
      <point x="586" y="1586" type="line"/>
      <point x="565" y="1586" type="line" smooth="yes"/>
      <point x="247" y="1586"/>
      <point x="92" y="1383"/>
      <point x="92" y="820" type="curve" smooth="yes"/>
    </contour>
    <contour>
      <point x="898" y="1198" type="line"/>
      <point x="1026" y="1198" type="line"/>
      <point x="1026" y="1210" type="line" smooth="yes"/>
      <point x="1026" y="1383"/>
      <point x="891" y="1586"/>
      <point x="603" y="1586" type="curve" smooth="yes"/>
      <point x="582" y="1586" type="line"/>
      <point x="582" y="1462" type="line"/>
      <point x="597" y="1462" type="line" smooth="yes"/>
      <point x="830" y="1462"/>
      <point x="898" y="1304"/>
      <point x="898" y="1209" type="curve" smooth="yes"/>
    </contour>
  </outline>
</glyph>
<glyph name="D" format="2">
  <advance width="1220"/>
  <unicode hex="0044"/>
  <outline>
    <component base="_latserifSW"/>
    <component base="_latstemSW"/>
    <component base="_latstemNW"/>
    <component base="_latstemascW"/>
    <component base="_latserifNW" yOffset="536"/>
    <contour>
      <point x="392" y="0" type="line"/>
      <point x="473" y="0" type="line" smooth="yes"/>
      <point x="841" y="0"/>
      <point x="1076" y="202"/>
      <point x="1076" y="766" type="curve" smooth="yes"/>
      <point x="1076" y="798" type="line"/>
      <point x="948" y="798" type="line"/>
      <point x="948" y="776" type="line" smooth="yes"/>
      <point x="948" y="301"/>
      <point x="780" y="124"/>
      <point x="467" y="124" type="curve" smooth="yes"/>
      <point x="392" y="124" type="line"/>
    </contour>
    <contour>
      <point x="948" y="788" type="line"/>
      <point x="1076" y="788" type="line"/>
      <point x="1076" y="820" type="line" smooth="yes"/>
      <point x="1076" y="1383"/>
      <point x="841" y="1574"/>
      <point x="473" y="1574" type="curve" smooth="yes"/>
      <point x="392" y="1574" type="line"/>
      <point x="392" y="1450" type="line"/>
      <point x="467" y="1450" type="line" smooth="yes"/>
      <point x="780" y="1450"/>
      <point x="948" y="1284"/>
      <point x="948" y="809" type="curve" smooth="yes"/>
    </contour>
  </outline>
</glyph>
<glyph name="E" format="2">
  <advance width="1220"/>
  <unicode hex="0045"/>
  <outline>
    <component base="_latserifSW"/>
    <component base="_latstemSW"/>
    <component base="_latstemNW"/>
    <component base="_latstemascW"/>
    <component base="_latserifNW" yOffset="536"/>
    <contour>
      <point x="256" y="744" type="line"/>
      <point x="762" y="744" type="line"/>
      <point x="762" y="868" type="line"/>
      <point x="256" y="868" type="line"/>
    </contour>
    <contour>
      <point x="256" y="1450" type="line"/>
      <point x="932" y="1450" type="line"/>
      <point x="932" y="1574" type="line"/>
      <point x="256" y="1574" type="line"/>
    </contour>
    <contour>
      <point x="256" y="0" type="line"/>
      <point x="932" y="0" type="line"/>
      <point x="932" y="124" type="line"/>
      <point x="256" y="124" type="line"/>
    </contour>
    <contour>
      <point x="868" y="1222" type="line"/>
      <point x="996" y="1222" type="line"/>
      <point x="996" y="1574" type="line"/>
      <point x="868" y="1574" type="line"/>
    </contour>
    <contour>
      <point x="868" y="0" type="line"/>
      <point x="996" y="0" type="line"/>
      <point x="996" y="352" type="line"/>
      <point x="868" y="352" type="line"/>
    </contour>
    <contour>
      <point x="698" y="596" type="line"/>
      <point x="826" y="596" type="line"/>
      <point x="826" y="1016" type="line"/>
      <point x="698" y="1016" type="line"/>
    </contour>
  </outline>
</glyph>
<glyph name="F" format="2">
  <advance width="1220"/>
  <unicode hex="0046"/>
  <outline>
    <component base="_latserifSW"/>
    <component base="_latstemSW"/>
    <component base="_latstemNW"/>
    <component base="_latstemascW" yOffset="-128"/>
    <component base="_latserifNW" yOffset="408"/>
    <contour>
      <point x="256" y="1322" type="line"/>
      <point x="932" y="1322" type="line"/>
      <point x="932" y="1446" type="line"/>
      <point x="256" y="1446" type="line"/>
    </contour>
    <contour>
      <point x="256" y="680" type="line"/>
      <point x="762" y="680" type="line"/>
      <point x="762" y="804" type="line"/>
      <point x="256" y="804" type="line"/>
    </contour>
    <contour>
      <point x="698" y="546" type="line"/>
      <point x="818" y="546" type="line"/>
      <point x="818" y="938" type="line"/>
      <point x="698" y="938" type="line"/>
    </contour>
    <contour>
      <point x="256" y="1574" type="line"/>
      <point x="932" y="1574" type="line"/>
    </contour>
    <contour>
      <point x="868" y="1158" type="line"/>
      <point x="996" y="1158" type="line"/>
      <point x="996" y="1446" type="line"/>
      <point x="868" y="1446" type="line"/>
    </contour>
    <contour>
      <point x="868" y="1574" type="line"/>
      <point x="996" y="1574" type="line"/>
    </contour>
  </outline>
</glyph>
<glyph name="I" format="2">
  <advance width="1220"/>
  <unicode hex="0049"/>
  <outline>
    <component base="_latstemSW" xOffset="144"/>
    <component base="_latstemNW" xOffset="144"/>
    <component base="_latstemascW" xOffset="144"/>
    <contour>
      <point x="92" y="0" type="line"/>
      <point x="708" y="0" type="line"/>
      <point x="708" y="124" type="line"/>
      <point x="92" y="124" type="line"/>
    </contour>
    <contour>
      <point x="92" y="1450" type="line"/>
      <point x="708" y="1450" type="line"/>
      <point x="708" y="1574" type="line"/>
      <point x="92" y="1574" type="line"/>
    </contour>
  </outline>
</glyph>
<glyph name="N" format="2">
  <advance width="1220"/>
  <unicode hex="004E"/>
  <outline>
    <component base="_latserifSW"/>
    <component base="_latstemSW"/>
    <component base="_latstemNW"/>
    <component base="_latstemSE" xOffset="162"/>
    <component base="_latstemascW"/>
    <component base="_lathalfserifascW"/>
    <component base="_latstemNE" xOffset="162"/>
    <component base="_latstemascW" xOffset="798"/>
    <component base="_latserifNE" xOffset="162" yOffset="536"/>
    <contour>
      <point x="993" y="0" type="line"/>
      <point x="1054" y="0" type="line"/>
      <point x="1054" y="156" type="line"/>
      <point x="320" y="1574" type="line"/>
      <point x="256" y="1574" type="line"/>
      <point x="256" y="1425" type="line"/>
    </contour>
  </outline>
</glyph>
<glyph name="O" format="2">
  <advance width="1220"/>
  <unicode hex="004F"/>
  <outline>
    <contour>
      <point x="964" y="1018" type="line"/>
      <point x="1092" y="1018" type="line"/>
      <point x="1092" y="1070" type="line" smooth="yes"/>
      <point x="1092" y="1313"/>
      <point x="982" y="1576"/>
      <point x="699" y="1576" type="curve" smooth="yes"/>
      <point x="653" y="1576" type="line"/>
      <point x="653" y="1452" type="line"/>
      <point x="678" y="1452" type="line" smooth="yes"/>
      <point x="900" y="1452"/>
      <point x="964" y="1244"/>
      <point x="964" y="1059" type="curve" smooth="yes"/>
    </contour>
    <contour>
      <point x="521" y="0" type="curve" smooth="yes"/>
      <point x="567" y="0" type="line"/>
      <point x="567" y="124" type="line"/>
      <point x="541" y="124" type="line" smooth="yes"/>
      <point x="320" y="124"/>
      <point x="256" y="331"/>
      <point x="256" y="516" type="curve" smooth="yes"/>
      <point x="256" y="558" type="line"/>
      <point x="128" y="558" type="line"/>
      <point x="128" y="506" type="line" smooth="yes"/>
      <point x="128" y="262"/>
      <point x="238" y="0"/>
    </contour>
    <contour>
      <point x="550" y="0" type="line"/>
      <point x="670" y="0" type="line"/>
      <point x="670" y="124" type="line"/>
      <point x="550" y="124" type="line"/>
    </contour>
    <contour>
      <point x="128" y="543" type="line"/>
      <point x="256" y="543" type="line"/>
      <point x="256" y="1033" type="line"/>
      <point x="128" y="1033" type="line"/>
    </contour>
    <contour>
      <point x="653" y="0" type="line"/>
      <point x="699" y="0" type="line" smooth="yes"/>
      <point x="982" y="0"/>
      <point x="1092" y="262"/>
      <point x="1092" y="506" type="curve" smooth="yes"/>
      <point x="1092" y="558" type="line"/>
      <point x="964" y="558" type="line"/>
      <point x="964" y="516" type="line" smooth="yes"/>
      <point x="964" y="331"/>
      <point x="900" y="124"/>
      <point x="678" y="124" type="curve" smooth="yes"/>
      <point x="653" y="124" type="line"/>
    </contour>
    <contour>
      <point x="128" y="1018" type="line"/>
      <point x="256" y="1018" type="line"/>
      <point x="256" y="1059" type="line" smooth="yes"/>
      <point x="256" y="1244"/>
      <point x="320" y="1452"/>
      <point x="541" y="1452" type="curve" smooth="yes"/>
      <point x="567" y="1452" type="line"/>
      <point x="567" y="1576" type="line"/>
      <point x="521" y="1576" type="line" smooth="yes"/>
      <point x="238" y="1576"/>
      <point x="128" y="1313"/>
      <point x="128" y="1070" type="curve" smooth="yes"/>
    </contour>
    <contour>
      <point x="964" y="543" type="line"/>
      <point x="1092" y="543" type="line"/>
      <point x="1092" y="1033" type="line"/>
      <point x="964" y="1033" type="line"/>
    </contour>
    <contour>
      <point x="550" y="1452" type="line"/>
      <point x="670" y="1452" type="line"/>
      <point x="670" y="1576" type="line"/>
      <point x="550" y="1576" type="line"/>
    </contour>
  </outline>
</glyph>
<glyph name="S" format="2">
  <advance width="1220"/>
  <unicode hex="0053"/>
  <outline>
    <contour>
      <point x="531" y="-12" type="curve"/>
      <point x="841" y="-12"/>
      <point x="976" y="210"/>
      <point x="976" y="414" type="curve"/>
      <point x="976" y="616"/>
      <point x="821" y="795"/>
      <point x="543" y="815" type="curve" smooth="yes"/>
      <point x="288" y="833"/>
      <point x="250" y="974"/>
      <point x="250" y="1069" type="curve" smooth="yes"/>
      <point x="250" y="1182"/>
      <point x="288" y="1334"/>
      <point x="532" y="1334" type="curve"/>
      <point x="780" y="1334"/>
      <point x="813" y="1176"/>
      <point x="813" y="1081" type="curve" smooth="yes"/>
      <point x="813" y="1070" type="line"/>
      <point x="946" y="1070" type="line"/>
      <point x="946" y="1082" type="line" smooth="yes"/>
      <point x="946" y="1265"/>
      <point x="841" y="1458"/>
      <point x="533" y="1458" type="curve" smooth="yes"/>
      <point x="227" y="1458"/>
      <point x="122" y="1251"/>
      <point x="122" y="1070" type="curve"/>
      <point x="122" y="885"/>
      <point x="228" y="719"/>
      <point x="537" y="691" type="curve" smooth="yes"/>
      <point x="760" y="671"/>
      <point x="848" y="537"/>
      <point x="848" y="413" type="curve" smooth="yes"/>
      <point x="848" y="289"/>
      <point x="780" y="112"/>
      <point x="534" y="112" type="curve"/>
      <point x="288" y="112"/>
      <point x="225" y="281"/>
      <point x="225" y="376" type="curve" smooth="yes"/>
      <point x="225" y="388" type="line"/>
      <point x="92" y="388" type="line"/>
      <point x="92" y="376" type="line" smooth="yes"/>
      <point x="92" y="192"/>
      <point x="227" y="-12"/>
    </contour>
  </outline>
</glyph>
<glyph name="U" format="2">
  <advance width="1220"/>
  <unicode hex="0055"/>
  <outline>
    <component base="_latstemascW"/>
    <component base="_latserifNW" yOffset="536"/>
    <component base="_latstemascW" xOffset="766"/>
    <component base="_latserifNE" xOffset="130" yOffset="536"/>
    <contour>
      <point x="621" y="-12" type="curve" smooth="yes"/>
      <point x="642" y="-12" type="line"/>
      <point x="642" y="112" type="line"/>
      <point x="626" y="112" type="line" smooth="yes"/>
      <point x="373" y="112"/>
      <point x="320" y="301"/>
      <point x="320" y="676" type="curve" smooth="yes"/>
      <point x="320" y="1038" type="line"/>
      <point x="192" y="1038" type="line"/>
      <point x="192" y="666" type="line" smooth="yes"/>
      <point x="192" y="192"/>
      <point x="313" y="-12"/>
    </contour>
    <contour>
      <point x="638" y="-12" type="line"/>
      <point x="659" y="-12" type="line" smooth="yes"/>
      <point x="967" y="-12"/>
      <point x="1086" y="192"/>
      <point x="1086" y="666" type="curve" smooth="yes"/>
      <point x="1086" y="1038" type="line"/>
      <point x="958" y="1038" type="line"/>
      <point x="958" y="676" type="line" smooth="yes"/>
      <point x="958" y="301"/>
      <point x="906" y="112"/>
      <point x="653" y="112" type="curve" smooth="yes"/>
      <point x="638" y="112" type="line"/>
    </contour>
  </outline>
</glyph>
<glyph name="W" format="2">
  <advance width="1220"/>
  <unicode hex="0057"/>
  <outline>
    <component base="_latserifNW" xOffset="-26" yOffset="408"/>
    <component base="_latserifNE" xOffset="586" yOffset="408"/>
    <contour>
      <point x="415" y="0" type="line"/>
      <point x="594" y="0" type="line"/>
      <point x="915" y="1446" type="line"/>
      <point x="798" y="1446" type="line"/>
      <point x="507" y="179" type="line"/>
      <point x="244" y="1446" type="line"/>
      <point x="117" y="1446" type="line"/>
    </contour>
    <contour>
      <point x="1114" y="0" type="line"/>
      <point x="1293" y="0" type="line"/>
      <point x="1590" y="1446" type="line"/>
      <point x="1463" y="1446" type="line"/>
      <point x="1201" y="179" type="line"/>
      <point x="912" y="1446" type="line"/>
      <point x="795" y="1446" type="line"/>
    </contour>
  </outline>
</glyph>
<glyph name="Z" format="2">
  <advance width="1220"/>
  <unicode hex="005A"/>
  <outline>
    <contour>
      <point x="92" y="0" type="line"/>
      <point x="164" y="0" type="line"/>
      <point x="985" y="1450" type="line"/>
      <point x="985" y="1574" type="line"/>
      <point x="913" y="1574" type="line"/>
      <point x="92" y="124" type="line"/>
    </contour>
    <contour>
      <point x="123" y="0" type="line"/>
      <point x="995" y="0" type="line"/>
      <point x="995" y="124" type="line"/>
      <point x="123" y="124" type="line"/>
    </contour>
    <contour>
      <point x="867" y="62" type="line"/>
      <point x="995" y="62" type="line"/>
      <point x="995" y="392" type="line"/>
      <point x="867" y="392" type="line"/>
    </contour>
    <contour>
      <point x="112" y="1182" type="line"/>
      <point x="240" y="1182" type="line"/>
      <point x="240" y="1512" type="line"/>
      <point x="112" y="1512" type="line"/>
    </contour>
    <contour>
      <point x="112" y="1450" type="line"/>
      <point x="945" y="1450" type="line"/>
      <point x="945" y="1574" type="line"/>
      <point x="112" y="1574" type="line"/>
    </contour>
  </outline>
</glyph>
<glyph name="a" format="2">
  <advance width="1040"/>
  <unicode hex="0061"/>
  <outline>
    <contour>
      <point x="470" y="124" type="curve"/>
      <point x="470" y="87"/>
      <point x="470" y="28"/>
      <point x="470" y="0" type="curve"/>
      <point x="671" y="0"/>
      <point x="821" y="159"/>
      <point x="867" y="289" type="curve"/>
      <point x="785" y="288" type="line"/>
      <point x="748" y="230"/>
      <point x="623" y="124"/>
    </contour>
    <contour>
      <point x="912" y="538" type="line"/>
      <point x="784" y="538" type="line"/>
      <point x="784" y="0" type="line"/>
      <point x="912" y="0" type="line"/>
    </contour>
    <contour>
      <point x="527" y="1050" type="line"/>
      <point x="471" y="1050" type="line" smooth="yes"/>
      <point x="218" y="1050"/>
      <point x="128" y="878"/>
      <point x="128" y="762" type="curve"/>
      <point x="256" y="762" type="line"/>
      <point x="256" y="815"/>
      <point x="300" y="926"/>
      <point x="492" y="926" type="curve" smooth="yes"/>
      <point x="527" y="926" type="line"/>
    </contour>
    <contour>
      <point x="569" y="1050" type="curve" smooth="yes"/>
      <point x="513" y="1050" type="line"/>
      <point x="513" y="926" type="line"/>
      <point x="549" y="926" type="line" smooth="yes"/>
      <point x="750" y="926"/>
      <point x="784" y="769"/>
      <point x="784" y="554" type="curve" smooth="yes"/>
      <point x="784" y="512" type="line"/>
      <point x="912" y="512" type="line"/>
      <point x="912" y="564" type="line" smooth="yes"/>
      <point x="912" y="838"/>
      <point x="832" y="1050"/>
    </contour>
    <contour>
      <point x="472" y="0" type="curve"/>
      <point x="472" y="124" type="line"/>
      <point x="294" y="130"/>
      <point x="256" y="236"/>
      <point x="256" y="288" type="curve"/>
      <point x="128" y="288" type="line"/>
      <point x="128" y="172"/>
      <point x="213" y="0"/>
    </contour>
    <contour>
      <point x="527" y="588" type="line"/>
      <point x="471" y="588" type="line" smooth="yes"/>
      <point x="218" y="588"/>
      <point x="128" y="416"/>
      <point x="128" y="300" type="curve"/>
      <point x="256" y="300" type="line"/>
      <point x="256" y="353"/>
      <point x="300" y="464"/>
      <point x="492" y="464" type="curve" smooth="yes"/>
      <point x="527" y="464" type="line"/>
    </contour>
    <contour>
      <point x="508" y="464" type="line"/>
      <point x="852" y="464" type="line"/>
      <point x="852" y="588" type="line"/>
      <point x="508" y="588" type="line"/>
    </contour>
  </outline>
</glyph>
<glyph name="d" format="2">
  <advance width="1040"/>
  <unicode hex="0064"/>
  <outline>
    <contour>
      <point x="256" y="538" type="line"/>
      <point x="128" y="538" type="line"/>
      <point x="128" y="406" type="line" smooth="yes"/>
      <point x="128" y="153"/>
      <point x="225" y="0"/>
      <point x="470" y="0" type="curve" smooth="yes"/>
      <point x="671" y="0"/>
      <point x="821" y="159"/>
      <point x="867" y="289" type="curve"/>
      <point x="785" y="288" type="line"/>
      <point x="748" y="230"/>
      <point x="623" y="124"/>
      <point x="470" y="124" type="curve" smooth="yes"/>
      <point x="298" y="124"/>
      <point x="256" y="223"/>
      <point x="256" y="418" type="curve" smooth="yes"/>
    </contour>
    <contour>
      <point x="912" y="1574" type="line"/>
      <point x="784" y="1574" type="line"/>
      <point x="784" y="988" type="line"/>
      <point x="912" y="988" type="line"/>
    </contour>
    <contour>
      <point x="912" y="1050" type="line"/>
      <point x="784" y="1050" type="line"/>
      <point x="784" y="512" type="line"/>
      <point x="912" y="512" type="line"/>
    </contour>
    <contour>
      <point x="470" y="1050" type="curve" smooth="yes"/>
      <point x="225" y="1050"/>
      <point x="128" y="897"/>
      <point x="128" y="644" type="curve" smooth="yes"/>
      <point x="128" y="512" type="line"/>
      <point x="256" y="512" type="line"/>
      <point x="256" y="632" type="line" smooth="yes"/>
      <point x="256" y="827"/>
      <point x="298" y="926"/>
      <point x="470" y="926" type="curve" smooth="yes"/>
      <point x="623" y="926"/>
      <point x="748" y="820"/>
      <point x="785" y="762" type="curve"/>
      <point x="867" y="761" type="line"/>
      <point x="821" y="891"/>
      <point x="671" y="1050"/>
    </contour>
    <contour>
      <point x="912" y="538" type="line"/>
      <point x="784" y="538" type="line"/>
      <point x="784" y="0" type="line"/>
      <point x="912" y="0" type="line"/>
    </contour>
  </outline>
</glyph>
<glyph name="e" format="2">
  <advance width="988"/>
  <unicode hex="0065"/>
  <anchor x="498" y="1100" name="U"/>
  <outline>
    <component base="_latcirNW"/>
    <component base="_latcirSW"/>
    <component base="_latcurveSE"/>
    <contour>
      <point x="744" y="522" type="line"/>
      <point x="872" y="522" type="line"/>
      <point x="872" y="554" type="line" smooth="yes"/>
      <point x="872" y="897"/>
      <point x="767" y="1050"/>
      <point x="508" y="1050" type="curve" smooth="yes"/>
      <point x="492" y="1050" type="line"/>
      <point x="492" y="926" type="line"/>
      <point x="507" y="926" type="line" smooth="yes"/>
      <point x="701" y="926"/>
      <point x="744" y="813"/>
      <point x="744" y="543" type="curve" smooth="yes"/>
    </contour>
    <contour>
      <point x="156" y="463" type="line"/>
      <point x="872" y="463" type="line"/>
      <point x="872" y="525" type="line"/>
      <point x="807" y="587" type="line"/>
      <point x="156" y="587" type="line"/>
    </contour>
  </outline>
</glyph>
<glyph name="g" format="2">
  <advance width="1040"/>
  <unicode hex="0067"/>
  <outline>
    <component base="_latstemSE" xOffset="-100"/>
    <component base="_latstemNE" xOffset="-100"/>
    <component base="_latarchW"/>
    <component base="_latbowlW" xOffset="-100"/>
    <component base="_latcurveNE" xScale="-1" yScale="-1" xOffset="964" yOffset="526"/>
    <contour>
      <point x="836" y="14" type="line"/>
      <point x="708" y="14" type="line"/>
      <point x="708" y="-27" type="line" smooth="yes"/>
      <point x="708" y="-242"/>
      <point x="674" y="-400"/>
      <point x="473" y="-400" type="curve" smooth="yes"/>
      <point x="461" y="-400" type="line"/>
      <point x="461" y="-524" type="line"/>
      <point x="493" y="-524" type="line" smooth="yes"/>
      <point x="756" y="-524"/>
      <point x="836" y="-311"/>
      <point x="836" y="-38" type="curve" smooth="yes"/>
    </contour>
  </outline>
</glyph>
<glyph name="i" format="2">
  <advance width="544"/>
  <unicode hex="0069"/>
  <outline>
    <contour>
      <point x="178" y="1272" type="line"/>
      <point x="366" y="1272" type="line"/>
      <point x="366" y="1460" type="line"/>
      <point x="178" y="1460" type="line"/>
    </contour>
    <contour>
      <point x="208" y="512" type="line"/>
      <point x="336" y="512" type="line"/>
      <point x="336" y="1050" type="line"/>
      <point x="208" y="1050" type="line"/>
    </contour>
    <contour>
      <point x="208" y="0" type="line"/>
      <point x="336" y="0" type="line"/>
      <point x="336" y="538" type="line"/>
      <point x="208" y="538" type="line"/>
    </contour>
    <contour>
      <point x="78" y="0" type="line"/>
      <point x="466" y="0" type="line"/>
      <point x="466" y="124" type="line"/>
      <point x="78" y="124" type="line"/>
    </contour>
    <contour>
      <point x="78" y="926" type="line"/>
      <point x="256" y="926" type="line"/>
      <point x="256" y="1050" type="line"/>
      <point x="78" y="1050" type="line"/>
    </contour>
  </outline>
</glyph>
<glyph name="j" format="2">
  <advance width="567"/>
  <unicode hex="006A"/>
  <outline>
    <contour>
      <point x="281" y="0" type="line"/>
      <point x="409" y="0" type="line"/>
      <point x="409" y="508" type="line"/>
      <point x="281" y="508" type="line"/>
    </contour>
    <contour>
      <point x="281" y="493" type="line"/>
      <point x="409" y="493" type="line"/>
      <point x="409" y="557" type="line"/>
      <point x="281" y="557" type="line"/>
    </contour>
    <contour>
      <point x="281" y="542" type="line"/>
      <point x="409" y="542" type="line"/>
      <point x="409" y="1050" type="line"/>
      <point x="281" y="1050" type="line"/>
    </contour>
    <contour>
      <point x="46" y="-526" type="line" smooth="yes"/>
      <point x="329" y="-526"/>
      <point x="409" y="-314"/>
      <point x="409" y="-70" type="curve" smooth="yes"/>
      <point x="409" y="62" type="line"/>
      <point x="281" y="62" type="line"/>
      <point x="281" y="-60" type="line" smooth="yes"/>
      <point x="281" y="-245"/>
      <point x="247" y="-402"/>
      <point x="26" y="-402" type="curve" smooth="yes"/>
      <point x="0" y="-402" type="line"/>
      <point x="0" y="-526" type="line"/>
    </contour>
    <contour>
      <point x="251" y="1272" type="line"/>
      <point x="439" y="1272" type="line"/>
      <point x="439" y="1460" type="line"/>
      <point x="251" y="1460" type="line"/>
    </contour>
  </outline>
</glyph>
<glyph name="k" format="2">
  <advance width="1040"/>
  <unicode hex="006B"/>
  <outline>
    <component base="_latserifSW"/>
    <component base="_latstemSW"/>
    <component base="_latstemNW"/>
    <component base="_latstemascW"/>
    <component base="_lathalfserifascW"/>
    <component base="_latserifNE" xOffset="-80"/>
    <contour>
      <point x="797" y="0" type="line"/>
      <point x="858" y="0" type="line"/>
      <point x="858" y="124" type="line"/>
      <point x="504" y="577" type="line"/>
      <point x="390" y="577" type="line"/>
      <point x="390" y="522" type="line"/>
    </contour>
    <contour>
      <point x="259" y="473" type="line"/>
      <point x="473" y="473" type="line"/>
      <point x="473" y="597" type="line"/>
      <point x="259" y="597" type="line"/>
    </contour>
    <contour>
      <point x="834" y="0" type="line"/>
      <point x="990" y="0" type="line"/>
      <point x="990" y="124" type="line"/>
      <point x="834" y="124" type="line"/>
    </contour>
    <contour>
      <point x="378" y="534" type="line"/>
      <point x="492" y="534" type="line"/>
      <point x="908" y="966" type="line"/>
      <point x="908" y="1038" type="line"/>
      <point x="810" y="1038" type="line"/>
      <point x="378" y="589" type="line"/>
    </contour>
  </outline>
</glyph>
<glyph name="m" format="2">
  <advance width="1520"/>
  <unicode hex="006D"/>
  <outline>
    <contour>
      <point x="128" y="542" type="line"/>
      <point x="256" y="542" type="line"/>
      <point x="256" y="1050" type="line"/>
      <point x="128" y="1050" type="line"/>
    </contour>
    <contour>
      <point x="163" y="781" type="curve"/>
      <point x="255" y="782" type="line"/>
      <point x="292" y="840"/>
      <point x="395" y="926"/>
      <point x="451" y="926" type="curve" smooth="yes"/>
      <point x="477" y="926" type="line"/>
      <point x="477" y="1050" type="line"/>
      <point x="451" y="1050" type="line" smooth="yes"/>
      <point x="328" y="1050"/>
      <point x="209" y="911"/>
    </contour>
    <contour>
      <point x="696" y="542" type="line"/>
      <point x="824" y="542" type="line"/>
      <point x="824" y="594" type="line" smooth="yes"/>
      <point x="824" y="837"/>
      <point x="784" y="1050"/>
      <point x="501" y="1050" type="curve" smooth="yes"/>
      <point x="455" y="1050" type="line"/>
      <point x="455" y="926" type="line"/>
      <point x="480" y="926" type="line" smooth="yes"/>
      <point x="702" y="926"/>
      <point x="696" y="768"/>
      <point x="696" y="583" type="curve" smooth="yes"/>
    </contour>
    <contour>
      <point x="696" y="493" type="line"/>
      <point x="824" y="493" type="line"/>
      <point x="824" y="557" type="line"/>
      <point x="696" y="557" type="line"/>
    </contour>
    <contour>
      <point x="128" y="493" type="line"/>
      <point x="256" y="493" type="line"/>
      <point x="256" y="557" type="line"/>
      <point x="128" y="557" type="line"/>
    </contour>
    <contour>
      <point x="128" y="0" type="line"/>
      <point x="256" y="0" type="line"/>
      <point x="256" y="508" type="line"/>
      <point x="128" y="508" type="line"/>
    </contour>
    <contour>
      <point x="696" y="0" type="line"/>
      <point x="824" y="0" type="line"/>
      <point x="824" y="508" type="line"/>
      <point x="696" y="508" type="line"/>
    </contour>
    <contour>
      <point x="1264" y="542" type="line"/>
      <point x="1392" y="542" type="line"/>
      <point x="1392" y="594" type="line" smooth="yes"/>
      <point x="1392" y="837"/>
      <point x="1352" y="1050"/>
      <point x="1069" y="1050" type="curve" smooth="yes"/>
      <point x="1023" y="1050" type="line"/>
      <point x="1023" y="926" type="line"/>
      <point x="1048" y="926" type="line" smooth="yes"/>
      <point x="1270" y="926"/>
      <point x="1264" y="768"/>
      <point x="1264" y="583" type="curve" smooth="yes"/>
    </contour>
    <contour>
      <point x="1264" y="493" type="line"/>
      <point x="1392" y="493" type="line"/>
      <point x="1392" y="557" type="line"/>
      <point x="1264" y="557" type="line"/>
    </contour>
    <contour>
      <point x="1264" y="0" type="line"/>
      <point x="1392" y="0" type="line"/>
      <point x="1392" y="508" type="line"/>
      <point x="1264" y="508" type="line"/>
    </contour>
    <contour>
      <point x="713" y="781" type="curve"/>
      <point x="805" y="782" type="line"/>
      <point x="842" y="840"/>
      <point x="965" y="926"/>
      <point x="1021" y="926" type="curve" smooth="yes"/>
      <point x="1047" y="926" type="line"/>
      <point x="1047" y="1050" type="line"/>
      <point x="1021" y="1050" type="line" smooth="yes"/>
      <point x="898" y="1050"/>
      <point x="759" y="911"/>
    </contour>
  </outline>
</glyph>
<glyph name="p" format="2">
  <advance width="1040"/>
  <unicode hex="0070"/>
  <outline>
    <contour>
      <point x="784" y="512" type="line"/>
      <point x="912" y="512" type="line"/>
      <point x="912" y="644" type="line" smooth="yes"/>
      <point x="912" y="897"/>
      <point x="815" y="1050"/>
      <point x="570" y="1050" type="curve" smooth="yes"/>
      <point x="369" y="1050"/>
      <point x="219" y="891"/>
      <point x="173" y="761" type="curve"/>
      <point x="255" y="762" type="line"/>
      <point x="292" y="820"/>
      <point x="417" y="926"/>
      <point x="570" y="926" type="curve" smooth="yes"/>
      <point x="742" y="926"/>
      <point x="784" y="827"/>
      <point x="784" y="632" type="curve" smooth="yes"/>
    </contour>
    <contour>
      <point x="128" y="-524" type="line"/>
      <point x="256" y="-524" type="line"/>
      <point x="256" y="62" type="line"/>
      <point x="128" y="62" type="line"/>
    </contour>
    <contour>
      <point x="128" y="0" type="line"/>
      <point x="256" y="0" type="line"/>
      <point x="256" y="538" type="line"/>
      <point x="128" y="538" type="line"/>
    </contour>
    <contour>
      <point x="570" y="0" type="curve" smooth="yes"/>
      <point x="815" y="0"/>
      <point x="912" y="153"/>
      <point x="912" y="406" type="curve" smooth="yes"/>
      <point x="912" y="538" type="line"/>
      <point x="784" y="538" type="line"/>
      <point x="784" y="418" type="line" smooth="yes"/>
      <point x="784" y="223"/>
      <point x="742" y="124"/>
      <point x="570" y="124" type="curve" smooth="yes"/>
      <point x="417" y="124"/>
      <point x="292" y="230"/>
      <point x="255" y="288" type="curve"/>
      <point x="173" y="289" type="line"/>
      <point x="219" y="159"/>
      <point x="369" y="0"/>
    </contour>
    <contour>
      <point x="128" y="512" type="line"/>
      <point x="256" y="512" type="line"/>
      <point x="256" y="1050" type="line"/>
      <point x="128" y="1050" type="line"/>
    </contour>
    <contour>
      <point x="48" y="926" type="line"/>
      <point x="226" y="926" type="line"/>
      <point x="226" y="1050" type="line"/>
      <point x="48" y="1050" type="line"/>
    </contour>
    <contour>
      <point x="48" y="-524" type="line"/>
      <point x="376" y="-524" type="line"/>
      <point x="376" y="-400" type="line"/>
      <point x="48" y="-400" type="line"/>
    </contour>
  </outline>
</glyph>
<glyph name="r" format="2">
  <advance width="650"/>
  <unicode hex="0072"/>
  <outline>
    <contour>
      <point x="173" y="761" type="curve"/>
      <point x="255" y="762" type="line"/>
      <point x="292" y="820"/>
      <point x="417" y="926"/>
      <point x="570" y="926" type="curve"/>
      <point x="570" y="956"/>
      <point x="570" y="999"/>
      <point x="570" y="1050" type="curve"/>
      <point x="369" y="1050"/>
      <point x="219" y="891"/>
    </contour>
    <contour>
      <point x="570" y="926" type="line"/>
      <point x="650" y="926" type="line"/>
      <point x="650" y="1050" type="line"/>
      <point x="570" y="1050" type="line"/>
    </contour>
    <contour>
      <point x="148" y="512" type="line"/>
      <point x="276" y="512" type="line"/>
      <point x="276" y="1050" type="line"/>
      <point x="148" y="1050" type="line"/>
    </contour>
    <contour>
      <point x="148" y="0" type="line"/>
      <point x="276" y="0" type="line"/>
      <point x="276" y="538" type="line"/>
      <point x="148" y="538" type="line"/>
    </contour>
    <contour>
      <point x="48" y="0" type="line"/>
      <point x="476" y="0" type="line"/>
      <point x="476" y="124" type="line"/>
      <point x="48" y="124" type="line"/>
    </contour>
    <contour>
      <point x="48" y="926" type="line"/>
      <point x="226" y="926" type="line"/>
      <point x="226" y="1050" type="line"/>
      <point x="48" y="1050" type="line"/>
    </contour>
  </outline>
</glyph>
<glyph name="t" format="2">
  <advance width="888"/>
  <unicode hex="0074"/>
  <outline>
    <contour>
      <point x="308" y="542" type="line"/>
      <point x="436" y="542" type="line"/>
      <point x="436" y="1050" type="line"/>
      <point x="308" y="1050" type="line"/>
    </contour>
    <contour>
      <point x="308" y="988" type="line"/>
      <point x="436" y="988" type="line"/>
      <point x="436" y="1284" type="line"/>
      <point x="308" y="1284" type="line"/>
    </contour>
    <contour>
      <point x="308" y="493" type="line"/>
      <point x="436" y="493" type="line"/>
      <point x="436" y="557" type="line"/>
      <point x="308" y="557" type="line"/>
    </contour>
    <contour>
      <point x="671" y="0" type="curve" smooth="yes"/>
      <point x="717" y="0" type="line"/>
      <point x="717" y="124" type="line"/>
      <point x="691" y="124" type="line" smooth="yes"/>
      <point x="470" y="124"/>
      <point x="436" y="281"/>
      <point x="436" y="466" type="curve" smooth="yes"/>
      <point x="436" y="508" type="line"/>
      <point x="308" y="508" type="line"/>
      <point x="308" y="456" type="line" smooth="yes"/>
      <point x="308" y="212"/>
      <point x="388" y="0"/>
    </contour>
    <contour>
      <point x="128" y="926" type="line"/>
      <point x="760" y="926" type="line"/>
      <point x="760" y="1050" type="line"/>
      <point x="128" y="1050" type="line"/>
    </contour>
    <contour>
      <point x="700" y="0" type="line"/>
      <point x="760" y="0" type="line"/>
      <point x="760" y="124" type="line"/>
      <point x="700" y="124" type="line"/>
    </contour>
  </outline>
</glyph>
<glyph name="v" format="2">
  <advance width="1040"/>
  <unicode hex="0076"/>
  <outline>
    <contour>
      <point x="592" y="0" type="line"/>
      <point x="988" y="1048" type="line"/>
      <point x="858" y="1048" type="line"/>
      <point x="520" y="146" type="line"/>
      <point x="182" y="1048" type="line"/>
      <point x="52" y="1048" type="line"/>
      <point x="448" y="0" type="line"/>
    </contour>
  </outline>
</glyph>
<glyph name="w" format="2">
  <advance width="1028"/>
  <unicode hex="0077"/>
  <outline>
    <contour>
      <point x="939" y="0" type="line"/>
      <point x="1110" y="0" type="line"/>
      <point x="1348" y="1038" type="line"/>
      <point x="1225" y="1038" type="line"/>
      <point x="1022" y="151" type="line"/>
      <point x="784" y="1038" type="line"/>
      <point x="659" y="1038" type="line"/>
    </contour>
    <contour>
      <point x="339" y="0" type="line"/>
      <point x="510" y="0" type="line"/>
      <point x="789" y="1038" type="line"/>
      <point x="664" y="1038" type="line"/>
      <point x="427" y="151" type="line"/>
      <point x="223" y="1038" type="line"/>
      <point x="100" y="1038" type="line"/>
    </contour>
    <contour>
      <point x="339" y="0" type="line"/>
      <point x="510" y="0" type="line"/>
      <point x="789" y="1038" type="line"/>
      <point x="664" y="1038" type="line"/>
      <point x="427" y="151" type="line"/>
      <point x="223" y="1038" type="line"/>
      <point x="100" y="1038" type="line"/>
    </contour>
    <contour>
      <point x="14" y="914" type="line"/>
      <point x="400" y="914" type="line"/>
      <point x="400" y="1038" type="line"/>
      <point x="14" y="1038" type="line"/>
    </contour>
    <contour>
      <point x="533" y="914" type="line"/>
      <point x="919" y="914" type="line"/>
      <point x="919" y="1038" type="line"/>
      <point x="533" y="1038" type="line"/>
    </contour>
    <contour>
      <point x="1048" y="914" type="line"/>
      <point x="1434" y="914" type="line"/>
      <point x="1434" y="1038" type="line"/>
      <point x="1048" y="1038" type="line"/>
    </contour>
  </outline>
</glyph>
<glyph name="y" format="2">
  <advance width="1028"/>
  <unicode hex="0079"/>
  <anchor x="530" y="1100" name="U"/>
  <outline>
    <contour>
      <point x="563" y="-78" type="line"/>
      <point x="937" y="1038" type="line"/>
      <point x="804" y="1038" type="line"/>
      <point x="514" y="151" type="line"/>
      <point x="223" y="1038" type="line"/>
      <point x="90" y="1038" type="line"/>
      <point x="465" y="-78" type="line"/>
    </contour>
    <contour>
      <point x="173" y="-526" type="line" smooth="yes"/>
      <point x="333" y="-526"/>
      <point x="434" y="-467"/>
      <point x="533" y="-170" type="curve" smooth="yes"/>
      <point x="624" y="103" type="line"/>
      <point x="496" y="103" type="line"/>
      <point x="420" y="-117" type="line" smooth="yes"/>
      <point x="335" y="-362"/>
      <point x="294" y="-402"/>
      <point x="163" y="-402" type="curve" smooth="yes"/>
      <point x="65" y="-402" type="line"/>
      <point x="65" y="-526" type="line"/>
    </contour>
    <contour>
      <point x="14" y="914" type="line"/>
      <point x="438" y="914" type="line"/>
      <point x="438" y="1038" type="line"/>
      <point x="14" y="1038" type="line"/>
    </contour>
    <contour>
      <point x="610" y="914" type="line"/>
      <point x="1034" y="914" type="line"/>
      <point x="1034" y="1038" type="line"/>
      <point x="610" y="1038" type="line"/>
    </contour>
  </outline>
</glyph>
<glyph name="z" format="2">
  <advance width="1180"/>
  <unicode hex="007A"/>
  <outline>
    <contour>
      <point x="662" y="0" type="line"/>
      <point x="1058" y="1048" type="line"/>
      <point x="928" y="1048" type="line"/>
      <point x="590" y="146" type="line"/>
      <point x="252" y="1048" type="line"/>
      <point x="122" y="1048" type="line"/>
      <point x="518" y="0" type="line"/>
    </contour>
  </outline>
</glyph>
<glyph name="section" format="2">
  <advance width="1220"/>
  <unicode hex="00A7"/>
  <outline>
    <contour>
      <point x="630" y="88" type="line"/>
      <point x="853" y="147"/>
      <point x="1002" y="307"/>
      <point x="1002" y="524" type="curve"/>
      <point x="1002" y="746"/>
      <point x="846" y="924"/>
      <point x="569" y="953" type="curve" smooth="yes"/>
      <point x="304" y="981"/>
      <point x="276" y="1090"/>
      <point x="276" y="1200" type="curve"/>
      <point x="235" y="1200"/>
      <point x="189" y="1200"/>
      <point x="148" y="1200" type="curve"/>
      <point x="148" y="1005"/>
      <point x="244" y="861"/>
      <point x="543" y="829" type="curve" smooth="yes"/>
      <point x="775" y="804"/>
      <point x="874" y="667"/>
      <point x="874" y="523" type="curve" smooth="yes"/>
      <point x="874" y="369"/>
      <point x="776" y="247"/>
      <point x="594" y="204" type="curve"/>
    </contour>
    <contour>
      <point x="381" y="-525" type="curve" smooth="yes"/>
      <point x="627" y="-525" type="line"/>
      <point x="627" y="-401" type="line"/>
      <point x="401" y="-401" type="line" smooth="yes"/>
      <point x="320" y="-401"/>
      <point x="276" y="-364"/>
      <point x="276" y="-259" type="curve" smooth="yes"/>
      <point x="276" y="-160" type="line"/>
      <point x="148" y="-160" type="line"/>
      <point x="148" y="-269" type="line" smooth="yes"/>
      <point x="148" y="-433"/>
      <point x="238" y="-525"/>
    </contour>
    <contour>
      <point x="603" y="-525" type="line"/>
      <point x="749" y="-525" type="line" smooth="yes"/>
      <point x="892" y="-525"/>
      <point x="982" y="-433"/>
      <point x="982" y="-269" type="curve" smooth="yes"/>
      <point x="982" y="-160" type="line"/>
      <point x="854" y="-160" type="line"/>
      <point x="854" y="-259" type="line" smooth="yes"/>
      <point x="854" y="-364"/>
      <point x="810" y="-401"/>
      <point x="728" y="-401" type="curve" smooth="yes"/>
      <point x="603" y="-401" type="line"/>
    </contour>
    <contour>
      <point x="854" y="-160" type="curve"/>
      <point x="895" y="-160"/>
      <point x="941" y="-160"/>
      <point x="982" y="-160" type="curve"/>
      <point x="982" y="35"/>
      <point x="886" y="179"/>
      <point x="587" y="211" type="curve" smooth="yes"/>
      <point x="355" y="236"/>
      <point x="256" y="373"/>
      <point x="256" y="517" type="curve" smooth="yes"/>
      <point x="256" y="671"/>
      <point x="354" y="793"/>
      <point x="536" y="836" type="curve"/>
      <point x="500" y="952" type="line"/>
      <point x="277" y="893"/>
      <point x="128" y="733"/>
      <point x="128" y="516" type="curve"/>
      <point x="128" y="294"/>
      <point x="284" y="116"/>
      <point x="561" y="87" type="curve" smooth="yes"/>
      <point x="826" y="59"/>
      <point x="854" y="-50"/>
    </contour>
    <contour>
      <point x="148" y="1200" type="line"/>
      <point x="276" y="1200" type="line"/>
      <point x="276" y="1295" type="line" smooth="yes"/>
      <point x="276" y="1400"/>
      <point x="320" y="1438"/>
      <point x="401" y="1438" type="curve" smooth="yes"/>
      <point x="527" y="1438" type="line"/>
      <point x="527" y="1562" type="line"/>
      <point x="381" y="1562" type="line" smooth="yes"/>
      <point x="238" y="1562"/>
      <point x="148" y="1469"/>
      <point x="148" y="1306" type="curve" smooth="yes"/>
    </contour>
    <contour>
      <point x="854" y="1200" type="line"/>
      <point x="982" y="1200" type="line"/>
      <point x="982" y="1306" type="line" smooth="yes"/>
      <point x="982" y="1469"/>
      <point x="892" y="1562"/>
      <point x="749" y="1562" type="curve" smooth="yes"/>
      <point x="503" y="1562" type="line"/>
      <point x="503" y="1438" type="line"/>
      <point x="728" y="1438" type="line" smooth="yes"/>
      <point x="810" y="1438"/>
      <point x="854" y="1400"/>
      <point x="854" y="1295" type="curve" smooth="yes"/>
    </contour>
  </outline>
</glyph>
<glyph name="logicalnot" format="2">
  <advance width="1192"/>
  <unicode hex="00AC"/>
  <outline>
    <contour>
      <point x="160" y="660" type="line"/>
      <point x="1020" y="660" type="line"/>
      <point x="1020" y="784" type="line"/>
      <point x="160" y="784" type="line"/>
    </contour>
    <contour>
      <point x="896" y="495" type="line"/>
      <point x="1020" y="495" type="line"/>
      <point x="1020" y="722" type="line"/>
      <point x="896" y="722" type="line"/>
    </contour>
  </outline>
</glyph>
<glyph name="divide" format="2">
  <advance width="1158"/>
  <unicode hex="00F7"/>
  <outline>
    <contour>
      <point x="1006" y="425" type="line"/>
      <point x="1006" y="603" type="line"/>
      <point x="92" y="605" type="line"/>
      <point x="92" y="425" type="line"/>
    </contour>
    <contour>
      <point x="654" y="105" type="line"/>
      <point x="654" y="303" type="line"/>
      <point x="454" y="303" type="line"/>
      <point x="454" y="105" type="line"/>
    </contour>
    <contour>
      <point x="654" y="732" type="line"/>
      <point x="654" y="931" type="line"/>
      <point x="454" y="931" type="line"/>
      <point x="454" y="732" type="line"/>
    </contour>
  </outline>
</glyph>
<glyph name="idotless" format="2">
  <advance width="572"/>
  <unicode hex="0131"/>
  <anchor x="332" y="1100" name="U"/>
  <outline>
    <component base="_latstemSW" xOffset="60"/>
    <component base="_latstemNW" xOffset="60"/>
    <contour>
      <point x="92" y="0" type="line"/>
      <point x="572" y="0" type="line"/>
      <point x="572" y="124" type="line"/>
      <point x="92" y="124" type="line"/>
    </contour>
    <contour>
      <point x="92" y="914" type="line"/>
      <point x="332" y="914" type="line"/>
      <point x="332" y="1038" type="line"/>
      <point x="92" y="1038" type="line"/>
    </contour>
  </outline>
</glyph>
<glyph name="hungarumlaut" format="2">
  <unicode hex="02DD"/>
  <outline>
    <contour>
      <point x="517" y="1169" type="line"/>
      <point x="686" y="1169" type="line"/>
      <point x="901" y="1562" type="line"/>
      <point x="732" y="1562" type="line"/>
    </contour>
    <contour>
      <point x="157" y="1169" type="line"/>
      <point x="326" y="1169" type="line"/>
      <point x="541" y="1562" type="line"/>
      <point x="372" y="1562" type="line"/>
    </contour>
  </outline>
</glyph>
<glyph name="gravecomb" format="2">
  <unicode hex="0300"/>
  <anchor x="-510" y="1100" name="_U"/>
  <outline>
    <contour>
      <point x="-510" y="1169" type="line"/>
      <point x="-341" y="1169" type="line"/>
      <point x="-706" y="1562" type="line"/>
      <point x="-875" y="1562" type="line"/>
    </contour>
  </outline>
</glyph>
<glyph name="pi" format="2">
  <advance width="1128"/>
  <unicode hex="03C0"/>
  <outline>
    <component base="_latstemSW" xOffset="60"/>
    <component base="_latstemNW" xOffset="60"/>
    <component base="_latstemSE" xOffset="-60"/>
    <component base="_lathalfserifSE"/>
    <component base="_latstemNE" xOffset="-60"/>
    <component base="_lathalfserifSE" xOffset="-860"/>
    <contour>
      <point x="48" y="914" type="line"/>
      <point x="1132" y="914" type="line"/>
      <point x="1132" y="1038" type="line"/>
      <point x="48" y="1038" type="line"/>
    </contour>
  </outline>
</glyph>
<glyph name="figuredash" format="2">
  <advance width="1160"/>
  <unicode hex="2012"/>
  <outline>
    <contour>
      <point x="128" y="664" type="line"/>
      <point x="978" y="664" type="line"/>
      <point x="978" y="766" type="line"/>
      <point x="128" y="766" type="line"/>
    </contour>
  </outline>
</glyph>
<glyph name="endash" format="2">
  <advance width="1160"/>
  <unicode hex="2013"/>
  <outline>
    <contour>
      <point x="1006" y="425" type="line"/>
      <point x="1006" y="603" type="line"/>
      <point x="92" y="605" type="line"/>
      <point x="92" y="425" type="line"/>
    </contour>
  </outline>
</glyph>
<glyph name="quoteleft" format="2">
  <advance width="623"/>
  <unicode hex="2018"/>
  <outline>
    <contour>
      <point x="365" y="1229" type="line"/>
      <point x="397" y="1256" type="line"/>
      <point x="253" y="1454" type="line"/>
      <point x="253" y="1610" type="line"/>
      <point x="52" y="1610" type="line"/>
      <point x="52" y="1413" type="line"/>
      <point x="133" y="1413" type="line"/>
    </contour>
  </outline>
</glyph>
<glyph name="quoteright" format="2">
  <advance width="628"/>
  <unicode hex="2019"/>
  <outline>
    <contour>
      <point x="85" y="1193" type="line"/>
      <point x="321" y="1400" type="line"/>
      <point x="205" y="1503" type="line"/>
      <point x="40" y="1232" type="line"/>
    </contour>
    <contour>
      <point x="199" y="1400" type="line"/>
      <point x="423" y="1400" type="line"/>
      <point x="423" y="1624" type="line"/>
      <point x="199" y="1624" type="line"/>
    </contour>
  </outline>
</glyph>
<glyph name="quotedblleft" format="2">
  <advance width="987"/>
  <unicode hex="201C"/>
  <outline>
    <contour>
      <point x="52" y="1610" type="line"/>
      <point x="52" y="1411" type="line"/>
      <point x="142" y="1411" type="line"/>
      <point x="404" y="1216" type="line"/>
      <point x="252" y="1473" type="line"/>
      <point x="252" y="1610" type="line"/>
    </contour>
    <contour>
      <point x="415" y="1610" type="line"/>
      <point x="415" y="1411" type="line"/>
      <point x="503" y="1411" type="line"/>
      <point x="765" y="1216" type="line"/>
      <point x="614" y="1473" type="line"/>
      <point x="614" y="1610" type="line"/>
    </contour>
  </outline>
</glyph>
<glyph name="quotedblright" format="2">
  <advance width="987"/>
  <unicode hex="201D"/>
  <outline>
    <contour>
      <point x="765" y="1411" type="line"/>
      <point x="765" y="1610" type="line"/>
      <point x="566" y="1610" type="line"/>
      <point x="566" y="1473" type="line"/>
      <point x="415" y="1216" type="line"/>
      <point x="677" y="1411" type="line"/>
    </contour>
    <contour>
      <point x="404" y="1411" type="line"/>
      <point x="404" y="1610" type="line"/>
      <point x="205" y="1610" type="line"/>
      <point x="205" y="1473" type="line"/>
      <point x="52" y="1216" type="line"/>
      <point x="315" y="1411" type="line"/>
    </contour>
  </outline>
</glyph>
<glyph name="openbox" format="2">
  <advance width="1160"/>
  <unicode hex="2423"/>
  <outline>
    <contour>
      <point x="0" y="-286" type="line"/>
      <point x="691" y="-286" type="line"/>
      <point x="691" y="0" type="line"/>
      <point x="589" y="0" type="line"/>
      <point x="589" y="-184" type="line"/>
      <point x="102" y="-184" type="line"/>
      <point x="102" y="0" type="line"/>
      <point x="0" y="0" type="line"/>
    </contour>
  </outline>
</glyph>
<glyph name="uniA902" format="2">
  <advance width="904"/>
  <unicode hex="A902"/>
  <outline>
    <contour>
      <point x="522" y="0" type="line"/>
      <point x="819" y="819" type="line"/>
      <point x="659" y="819" type="line"/>
      <point x="452" y="237" type="line"/>
      <point x="245" y="819" type="line"/>
      <point x="85" y="819" type="line"/>
      <point x="382" y="0" type="line"/>
    </contour>
  </outline>
</glyph>
<glyph name="uniA906" format="2">
  <advance width="1156"/>
  <unicode hex="A906"/>
  <outline>
    <component base="sqWS"/>
    <component base="midW"/>
    <component base="sqWN"/>
    <component base="circleNE"/>
    <contour>
      <point x="261" y="156" type="line"/>
      <point x="666" y="847" type="line"/>
      <point x="666" y="1050" type="line"/>
      <point x="566" y="1050" type="line"/>
      <point x="261" y="526" type="line"/>
    </contour>
    <contour>
      <point x="796" y="179" type="curve" smooth="yes"/>
      <point x="768" y="179"/>
      <point x="745" y="202"/>
      <point x="745" y="230" type="curve" smooth="yes"/>
      <point x="745" y="259"/>
      <point x="768" y="282"/>
      <point x="796" y="282" type="curve" smooth="yes"/>
      <point x="824" y="282"/>
      <point x="847" y="259"/>
      <point x="847" y="230" type="curve" smooth="yes"/>
      <point x="847" y="202"/>
      <point x="824" y="179"/>
    </contour>
    <contour>
      <point x="796" y="0" type="curve" smooth="yes"/>
      <point x="923" y="0"/>
      <point x="1038" y="102"/>
      <point x="1038" y="284" type="curve" smooth="yes"/>
      <point x="1038" y="717" type="line"/>
      <point x="830" y="717" type="line"/>
      <point x="830" y="458" type="line"/>
      <point x="820" y="460"/>
      <point x="808" y="461"/>
      <point x="796" y="461" type="curve" smooth="yes"/>
      <point x="669" y="461"/>
      <point x="566" y="357"/>
      <point x="566" y="230" type="curve" smooth="yes"/>
      <point x="566" y="104"/>
      <point x="669" y="0"/>
    </contour>
  </outline>
</glyph>
<glyph name="uniA909" format="2">
  <advance width="1156"/>
  <unicode hex="A909"/>
  <outline>
    <component base="_klcircleNE" yOffset="-293"/>
    <component base="_klcircleSE"/>
    <component base="_klmidS"/>
    <component base="_klcircleSW"/>
    <component base="_klmidW"/>
    <component base="_klhookascW" yOffset="-524"/>
    <contour>
      <point x="924" y="333" type="line"/>
      <point x="1052" y="333" type="line"/>
      <point x="1052" y="424" type="line"/>
      <point x="924" y="424" type="line"/>
    </contour>
  </outline>
</glyph>
<glyph name="uniA90A" format="2">
  <advance width="1260"/>
  <unicode hex="A90A"/>
  <outline>
    <component base="_klsqSW"/>
    <component base="_klmidE" xOffset="104"/>
    <component base="_klsqES" xOffset="104"/>
    <component base="_klsqSEshort" xOffset="104"/>
    <component base="_klsqES" xOffset="-408"/>
    <component base="_klmidE" xOffset="-408"/>
    <contour>
      <point x="422" y="712" type="line"/>
      <point x="630" y="712" type="line"/>
      <point x="630" y="765" type="line" smooth="yes"/>
      <point x="630" y="957"/>
      <point x="547" y="1050"/>
      <point x="380" y="1050" type="curve" smooth="yes"/>
      <point x="372" y="1050" type="line"/>
      <point x="372" y="846" type="line"/>
      <point x="378" y="846" type="line" smooth="yes"/>
      <point x="410" y="846"/>
      <point x="422" y="829"/>
      <point x="422" y="755" type="curve" smooth="yes"/>
    </contour>
    <contour>
      <point x="118" y="712" type="line"/>
      <point x="326" y="712" type="line"/>
      <point x="326" y="755" type="line" smooth="yes"/>
      <point x="326" y="829"/>
      <point x="338" y="846"/>
      <point x="370" y="846" type="curve" smooth="yes"/>
      <point x="375" y="846" type="line"/>
      <point x="375" y="1050" type="line"/>
      <point x="367" y="1050" type="line" smooth="yes"/>
      <point x="201" y="1050"/>
      <point x="118" y="957"/>
      <point x="118" y="765" type="curve" smooth="yes"/>
    </contour>
    <contour>
      <point x="118" y="0" type="line"/>
      <point x="328" y="0" type="line"/>
      <point x="328" y="236" type="line"/>
      <point x="118" y="236" type="line"/>
    </contour>
    <contour>
      <point x="934" y="712" type="line"/>
      <point x="1142" y="712" type="line"/>
      <point x="1142" y="765" type="line" smooth="yes"/>
      <point x="1142" y="950"/>
      <point x="1042" y="1050"/>
      <point x="888" y="1050" type="curve" smooth="yes"/>
      <point x="794" y="1050" type="line"/>
      <point x="794" y="846" type="line"/>
      <point x="858" y="846" type="line" smooth="yes"/>
      <point x="909" y="846"/>
      <point x="934" y="817"/>
      <point x="934" y="755" type="curve" smooth="yes"/>
    </contour>
    <contour>
      <point x="773" y="1050" type="line"/>
      <point x="251" y="517" type="line" smooth="yes"/>
      <point x="153" y="416"/>
      <point x="118" y="375"/>
      <point x="118" y="266" type="curve" smooth="yes"/>
      <point x="118" y="212" type="line"/>
      <point x="328" y="212" type="line"/>
      <point x="328" y="256" type="line" smooth="yes"/>
      <point x="328" y="325"/>
      <point x="332" y="340"/>
      <point x="375" y="383" type="curve" smooth="yes"/>
      <point x="829" y="846" type="line"/>
      <point x="829" y="1050" type="line"/>
    </contour>
  </outline>
</glyph>
<glyph name="uniA90C" format="2">
  <advance width="1157"/>
  <unicode hex="A90C"/>
  <outline>
    <component base="sqSW"/>
    <component base="sqWS"/>
    <component base="midW"/>
    <component base="sqWN"/>
    <component base="midline" yOffset="-38"/>
    <component base="midE"/>
    <component base="sqES"/>
    <component base="sqSE"/>
    <contour>
      <point x="829" y="712" type="line"/>
      <point x="1039" y="712" type="line"/>
      <point x="1039" y="765" type="line" smooth="yes"/>
      <point x="1039" y="950"/>
      <point x="940" y="1050"/>
      <point x="786" y="1050" type="curve" smooth="yes"/>
      <point x="691" y="1050" type="line"/>
      <point x="691" y="845" type="line"/>
      <point x="755" y="845" type="line" smooth="yes"/>
      <point x="806" y="845"/>
      <point x="829" y="817"/>
      <point x="829" y="755" type="curve" smooth="yes"/>
    </contour>
    <contour>
      <point x="726" y="1050" type="line"/>
      <point x="667" y="1050" type="line"/>
      <point x="223" y="586" type="line"/>
      <point x="223" y="320" type="line"/>
      <point x="726" y="845" type="line"/>
    </contour>
  </outline>
</glyph>
<glyph name="uniA90E" format="2">
  <advance width="1156"/>
  <unicode hex="A90E"/>
  <outline>
    <component base="sqSW"/>
    <component base="headcir" xOffset="-256" yOffset="307"/>
    <component base="midN"/>
    <component base="circleNE"/>
    <component base="midE"/>
    <component base="sqES"/>
    <component base="sqSE"/>
    <contour>
      <point x="118" y="204" type="line"/>
      <point x="118" y="0" type="line"/>
      <point x="222" y="0" type="line"/>
      <point x="465" y="360" type="line"/>
      <point x="465" y="718" type="line"/>
    </contour>
    <contour>
      <point x="316" y="727" type="curve" smooth="yes"/>
      <point x="316" y="745" type="line" smooth="yes"/>
      <point x="316" y="807"/>
      <point x="351" y="846"/>
      <point x="402" y="846" type="curve" smooth="yes"/>
      <point x="517" y="846" type="line"/>
      <point x="517" y="1050" type="line"/>
      <point x="371" y="1050" type="line" smooth="yes"/>
      <point x="218" y="1050"/>
      <point x="118" y="930"/>
      <point x="118" y="745" type="curve" smooth="yes"/>
      <point x="118" y="727" type="line" smooth="yes"/>
      <point x="118" y="542"/>
      <point x="218" y="433"/>
      <point x="371" y="433" type="curve" smooth="yes"/>
      <point x="449" y="433" type="line"/>
      <point x="449" y="627" type="line"/>
      <point x="402" y="627" type="line" smooth="yes"/>
      <point x="351" y="627"/>
      <point x="316" y="665"/>
    </contour>
  </outline>
</glyph>
<glyph name="uniA910" format="2">
  <advance width="1157"/>
  <unicode hex="A910"/>
  <outline>
    <contour>
      <point x="460" y="504" type="curve"/>
      <point x="460" y="323" type="line"/>
      <point x="696" y="197" type="line"/>
      <point x="434" y="197" type="line"/>
      <point x="434" y="0" type="line"/>
      <point x="995" y="0" type="line"/>
      <point x="995" y="197" type="line"/>
      <point x="840" y="315" type="line"/>
      <point x="979" y="315"/>
      <point x="1028" y="470"/>
      <point x="1032" y="616" type="curve"/>
      <point x="1028" y="755"/>
      <point x="986" y="861"/>
      <point x="913" y="934" type="curve" smooth="yes"/>
      <point x="840" y="1006"/>
      <point x="736" y="1044"/>
      <point x="613" y="1048" type="curve"/>
      <point x="456" y="1042"/>
      <point x="367" y="998"/>
      <point x="287" y="890" type="curve"/>
      <point x="287" y="1048" type="line"/>
      <point x="87" y="1048" type="line"/>
      <point x="87" y="-241" type="line" smooth="yes"/>
      <point x="87" y="-326"/>
      <point x="110" y="-396"/>
      <point x="156" y="-445" type="curve" smooth="yes"/>
      <point x="204" y="-498"/>
      <point x="261" y="-525"/>
      <point x="332" y="-525" type="curve" smooth="yes"/>
      <point x="513" y="-525" type="line"/>
      <point x="513" y="-329" type="line"/>
      <point x="366" y="-329" type="line" smooth="yes"/>
      <point x="314" y="-329"/>
      <point x="287" y="-301"/>
      <point x="287" y="-243" type="curve" smooth="yes"/>
      <point x="287" y="536" type="line"/>
      <point x="308" y="614"/>
      <point x="344" y="677"/>
      <point x="385" y="724" type="curve" smooth="yes"/>
      <point x="406" y="748"/>
      <point x="428" y="768"/>
      <point x="448" y="783" type="curve" smooth="yes"/>
      <point x="504" y="827"/>
      <point x="573" y="854"/>
      <point x="613" y="854" type="curve" smooth="yes"/>
      <point x="749" y="854"/>
      <point x="835" y="746"/>
      <point x="835" y="612" type="curve" smooth="yes"/>
      <point x="835" y="534"/>
      <point x="785" y="486"/>
      <point x="712" y="474" type="curve" smooth="yes"/>
      <point x="640" y="460"/>
      <point x="541" y="475"/>
    </contour>
  </outline>
</glyph>
<glyph name="uniA912" format="2">
  <advance width="1156"/>
  <unicode hex="A912"/>
  <outline>
    <component base="sqWS"/>
    <component base="midW"/>
    <component base="headcir"/>
    <component base="sqWN"/>
    <contour>
      <point x="795" y="0" type="curve"/>
      <point x="919" y="0"/>
      <point x="1038" y="72"/>
      <point x="1038" y="312" type="curve" smooth="yes"/>
      <point x="1038" y="516"/>
      <point x="916" y="699"/>
      <point x="673" y="699" type="curve" smooth="yes"/>
      <point x="467" y="699"/>
      <point x="260" y="537"/>
      <point x="167" y="256" type="curve"/>
      <point x="312" y="157" type="line"/>
      <point x="397" y="439"/>
      <point x="559" y="515"/>
      <point x="673" y="515" type="curve" smooth="yes"/>
      <point x="825" y="515"/>
      <point x="854" y="403"/>
      <point x="854" y="312" type="curve" smooth="yes"/>
      <point x="854" y="215"/>
      <point x="868" y="86"/>
      <point x="795" y="86" type="curve"/>
      <point x="795" y="57"/>
      <point x="795" y="29"/>
    </contour>
    <contour>
      <point x="1038" y="705" type="line"/>
      <point x="1038" y="894" type="line"/>
      <point x="328" y="1050" type="line"/>
      <point x="118" y="1050" type="line"/>
      <point x="118" y="909" type="line"/>
    </contour>
  </outline>
</glyph>
<glyph name="uniA917" format="2">
  <advance width="904"/>
  <unicode hex="A917"/>
  <outline>
    <component base="sqNE"/>
    <component base="sqEN"/>
    <component base="midE"/>
    <component base="circleSE"/>
    <component base="midS"/>
    <component base="circleSW"/>
    <component base="midW"/>
    <component base="sqWN"/>
    <component base="sqNW"/>
    <contour>
      <point x="660" y="80" type="line"/>
      <point x="706" y="80" type="line"/>
      <point x="706" y="240" type="line"/>
      <point x="452" y="492" type="line"/>
      <point x="452" y="284" type="line"/>
    </contour>
    <contour>
      <point x="198" y="80" type="line"/>
      <point x="244" y="80" type="line"/>
      <point x="452" y="284" type="line"/>
      <point x="452" y="492" type="line"/>
      <point x="198" y="240" type="line"/>
    </contour>
  </outline>
</glyph>
<glyph name="uniA91A" format="2">
  <advance width="1156"/>
  <unicode hex="A91A"/>
  <outline>
    <component base="_klsqWS"/>
    <component base="_klmidW"/>
    <component base="_klsqWN"/>
    <component base="_klcircleNE"/>
    <component base="_klmidE"/>
    <component base="_kldescSE"/>
    <component base="_kldiagNW"/>
    <component base="_klsqSW"/>
    <contour>
      <point x="465" y="926" type="line"/>
      <point x="745" y="926" type="line"/>
      <point x="745" y="1050" type="line"/>
      <point x="465" y="1050" type="line"/>
    </contour>
  </outline>
</glyph>
<glyph name="uniA91F" format="2">
  <advance width="1156"/>
  <unicode hex="A91F"/>
  <outline>
    <component base="_klsqNW"/>
    <component base="_klsqWN"/>
    <component base="_klmidW"/>
    <component base="_klcircleSW"/>
    <component base="_kldiagSE"/>
    <component base="_klsqEN"/>
    <component base="_klmidE"/>
    <component base="_kldescSE"/>
    <contour>
      <point x="584" y="1050" type="line"/>
      <point x="406" y="1050" type="line"/>
      <point x="406" y="1050"/>
      <point x="406" y="758"/>
      <point x="406" y="758" type="curve" smooth="yes"/>
      <point x="406" y="650"/>
      <point x="382" y="507"/>
      <point x="277" y="479" type="curve"/>
      <point x="277" y="293" type="line"/>
      <point x="494" y="359"/>
      <point x="584" y="528"/>
      <point x="584" y="784" type="curve" smooth="yes"/>
    </contour>
  </outline>
</glyph>
<glyph name="uniA920" format="2">
  <advance width="904"/>
  <unicode hex="A920"/>
  <outline>
    <component base="sqWN"/>
    <component base="sqEN"/>
    <component base="midE"/>
    <component base="circleSE"/>
    <component base="midS"/>
    <component base="circleSW"/>
    <component base="serifWS"/>
    <contour>
      <point x="256" y="820" type="line"/>
      <point x="210" y="820" type="line"/>
      <point x="210" y="673" type="line"/>
      <point x="452" y="484" type="line"/>
      <point x="452" y="666" type="line"/>
    </contour>
    <contour>
      <point x="694" y="820" type="line"/>
      <point x="648" y="820" type="line"/>
      <point x="452" y="666" type="line"/>
      <point x="452" y="484" type="line"/>
      <point x="694" y="673" type="line"/>
    </contour>
  </outline>
</glyph>
<glyph name="uniA921" format="2">
  <advance width="1156"/>
  <unicode hex="A921"/>
  <outline>
    <component base="sqSW"/>
    <component base="sqWS"/>
    <component base="midW"/>
    <component base="sqWN"/>
    <component base="sqES"/>
    <component base="midE"/>
    <component base="ascNE"/>
    <contour>
      <point x="1038" y="57" type="line"/>
      <point x="328" y="1050" type="line"/>
      <point x="118" y="1050" type="line"/>
      <point x="118" y="1001" type="line"/>
      <point x="828" y="0" type="line"/>
      <point x="828" y="0"/>
      <point x="1038" y="0"/>
      <point x="1038" y="0" type="curve"/>
    </contour>
  </outline>
</glyph>
<glyph name="uniA923" format="2">
  <advance width="1156"/>
  <unicode hex="A923"/>
  <outline>
    <component base="sqNWshort"/>
    <component base="sqWN"/>
    <component base="midW"/>
    <component base="diagSE" xOffset="-80"/>
    <component base="sqNEshort"/>
    <component base="sqEN"/>
    <component base="midE"/>
    <component base="circleSEshort"/>
    <contour>
      <point x="371" y="0" type="curve" smooth="yes"/>
      <point x="417" y="0" type="line"/>
      <point x="417" y="204" type="line"/>
      <point x="402" y="204" type="line" smooth="yes"/>
      <point x="351" y="204"/>
      <point x="326" y="233"/>
      <point x="326" y="294" type="curve" smooth="yes"/>
      <point x="326" y="338" type="line"/>
      <point x="118" y="338" type="line"/>
      <point x="118" y="284" type="line" smooth="yes"/>
      <point x="118" y="100"/>
      <point x="218" y="0"/>
    </contour>
  </outline>
</glyph>
<glyph name="uniA925" format="2">
  <advance width="1156"/>
  <unicode hex="A925"/>
  <outline>
    <component base="circleSW"/>
    <component base="midS"/>
    <component base="midW"/>
    <component base="circleSE"/>
    <component base="circleNW"/>
    <component base="midE"/>
    <component base="midN"/>
    <component base="circleNE"/>
    <contour>
      <point x="578" y="540" type="curve" smooth="yes"/>
      <point x="748" y="540"/>
      <point x="908" y="620"/>
      <point x="988" y="740" type="curve"/>
      <point x="938" y="916" type="line"/>
      <point x="864" y="796"/>
      <point x="718" y="724"/>
      <point x="578" y="724" type="curve" smooth="yes"/>
      <point x="438" y="724"/>
      <point x="292" y="796"/>
      <point x="218" y="916" type="curve"/>
      <point x="168" y="740" type="line"/>
      <point x="248" y="620"/>
      <point x="408" y="540"/>
    </contour>
  </outline>
</glyph>
<glyph name="uniA927" format="2">
  <unicode hex="A927"/>
  <outline>
    <contour>
      <point x="-433" y="1343" type="line"/>
      <point x="-760" y="1573" type="line"/>
      <point x="-1084" y="1573" type="line"/>
      <point x="-451" y="1149" type="line"/>
      <point x="-157" y="1149" type="line"/>
    </contour>
  </outline>
</glyph>
<glyph name="uniA928" format="2">
  <unicode hex="A928"/>
  <outline>
    <contour>
      <point x="-132" y="1112" type="line"/>
      <point x="-578" y="1584" type="line"/>
      <point x="-1024" y="1112" type="line"/>
      <point x="-771" y="1112" type="line"/>
      <point x="-578" y="1316" type="line"/>
      <point x="-385" y="1112" type="line"/>
    </contour>
  </outline>
</glyph>
<glyph name="uniA929" format="2">
  <unicode hex="A929"/>
  <outline>
    <component base="_klcircleSW" xOffset="-1156" yOffset="1112"/>
    <component base="_klmidS" xOffset="-1156" yOffset="1112"/>
    <component base="_klcircleSE" xOffset="-1156" yOffset="1112"/>
    <contour>
      <point x="-1038" y="1420" type="line"/>
      <point x="-830" y="1420" type="line"/>
      <point x="-830" y="1562" type="line"/>
      <point x="-1038" y="1562" type="line"/>
    </contour>
    <contour>
      <point x="-326" y="1420" type="line"/>
      <point x="-118" y="1420" type="line"/>
      <point x="-118" y="1562" type="line"/>
      <point x="-326" y="1562" type="line"/>
    </contour>
  </outline>
</glyph>
<glyph name="uniA92A" format="2">
  <unicode hex="A92A"/>
  <outline>
    <component base="circleSW" xOffset="-1156" yOffset="1112"/>
    <component base="midS" xOffset="-1156" yOffset="1112"/>
    <component base="circleSE" xOffset="-1156" yOffset="1112"/>
    <contour>
      <point x="830" y="1203" type="line"/>
      <point x="1038" y="1203" type="line"/>
      <point x="1038" y="1277" type="line" smooth="yes"/>
      <point x="1038" y="1462"/>
      <point x="939" y="1562"/>
      <point x="785" y="1562" type="curve" smooth="yes"/>
      <point x="639" y="1562" type="line"/>
      <point x="639" y="1358" type="line"/>
      <point x="754" y="1358" type="line" smooth="yes"/>
      <point x="805" y="1358"/>
      <point x="830" y="1329"/>
      <point x="830" y="1267" type="curve" smooth="yes"/>
    </contour>
    <contour>
      <point x="-785" y="0" type="curve" smooth="yes"/>
      <point x="-639" y="0" type="line"/>
      <point x="-639" y="204" type="line"/>
      <point x="-754" y="204" type="line" smooth="yes"/>
      <point x="-805" y="204"/>
      <point x="-830" y="233"/>
      <point x="-830" y="294" type="curve" smooth="yes"/>
      <point x="-830" y="338" type="line"/>
      <point x="-1038" y="338" type="line"/>
      <point x="-1038" y="284" type="line" smooth="yes"/>
      <point x="-1038" y="100"/>
      <point x="-938" y="0"/>
    </contour>
    <contour>
      <point x="-731" y="0" type="line"/>
      <point x="-425" y="0" type="line"/>
      <point x="-425" y="204" type="line"/>
      <point x="-731" y="204" type="line"/>
    </contour>
    <contour>
      <point x="-1038" y="333" type="line"/>
      <point x="-830" y="333" type="line"/>
      <point x="-830" y="717" type="line"/>
      <point x="-1038" y="717" type="line"/>
    </contour>
    <contour>
      <point x="-517" y="0" type="line"/>
      <point x="-371" y="0" type="line" smooth="yes"/>
      <point x="-217" y="0"/>
      <point x="-118" y="100"/>
      <point x="-118" y="284" type="curve" smooth="yes"/>
      <point x="-118" y="338" type="line"/>
      <point x="-326" y="338" type="line"/>
      <point x="-326" y="294" type="line" smooth="yes"/>
      <point x="-326" y="233"/>
      <point x="-351" y="204"/>
      <point x="-402" y="204" type="curve" smooth="yes"/>
      <point x="-517" y="204" type="line"/>
    </contour>
    <contour>
      <point x="-1038" y="712" type="line"/>
      <point x="-830" y="712" type="line"/>
      <point x="-830" y="755" type="line" smooth="yes"/>
      <point x="-830" y="817"/>
      <point x="-805" y="846"/>
      <point x="-754" y="846" type="curve" smooth="yes"/>
      <point x="-639" y="846" type="line"/>
      <point x="-639" y="1050" type="line"/>
      <point x="-785" y="1050" type="line" smooth="yes"/>
      <point x="-938" y="1050"/>
      <point x="-1038" y="950"/>
      <point x="-1038" y="765" type="curve" smooth="yes"/>
    </contour>
    <contour>
      <point x="-326" y="333" type="line"/>
      <point x="-118" y="333" type="line"/>
      <point x="-118" y="717" type="line"/>
      <point x="-326" y="717" type="line"/>
    </contour>
    <contour>
      <point x="-731" y="846" type="line"/>
      <point x="-425" y="846" type="line"/>
      <point x="-425" y="1050" type="line"/>
      <point x="-731" y="1050" type="line"/>
    </contour>
    <contour>
      <point x="371" y="0" type="curve" smooth="yes"/>
      <point x="457" y="0" type="line"/>
      <point x="457" y="204" type="line"/>
      <point x="402" y="204" type="line" smooth="yes"/>
      <point x="351" y="204"/>
      <point x="326" y="233"/>
      <point x="326" y="294" type="curve" smooth="yes"/>
      <point x="326" y="338" type="line"/>
      <point x="118" y="338" type="line"/>
      <point x="118" y="284" type="line" smooth="yes"/>
      <point x="118" y="100"/>
      <point x="218" y="0"/>
    </contour>
    <contour>
      <point x="-1038" y="1420" type="line"/>
      <point x="-830" y="1420" type="line"/>
      <point x="-830" y="1562" type="line"/>
      <point x="-1038" y="1562" type="line"/>
    </contour>
    <contour>
      <point x="-326" y="712" type="line"/>
      <point x="-118" y="712" type="line"/>
      <point x="-118" y="765" type="line" smooth="yes"/>
      <point x="-118" y="950"/>
      <point x="-217" y="1050"/>
      <point x="-371" y="1050" type="curve" smooth="yes"/>
      <point x="-517" y="1050" type="line"/>
      <point x="-517" y="846" type="line"/>
      <point x="-402" y="846" type="line" smooth="yes"/>
      <point x="-351" y="846"/>
      <point x="-326" y="817"/>
      <point x="-326" y="755" type="curve" smooth="yes"/>
    </contour>
    <contour>
      <point x="118" y="333" type="line"/>
      <point x="326" y="333" type="line"/>
      <point x="326" y="717" type="line"/>
      <point x="118" y="717" type="line"/>
    </contour>
    <contour>
      <point x="-682" y="1374" type="line"/>
      <point x="-474" y="1374" type="line"/>
      <point x="-474" y="1562" type="line"/>
      <point x="-682" y="1562" type="line"/>
    </contour>
    <contour>
      <point x="828" y="0" type="line"/>
      <point x="1123" y="0" type="line"/>
      <point x="1123" y="204" type="line"/>
      <point x="828" y="204" type="line"/>
    </contour>
    <contour>
      <point x="830" y="0" type="line"/>
      <point x="1038" y="0" type="line"/>
      <point x="1038" y="338" type="line"/>
      <point x="830" y="338" type="line"/>
    </contour>
    <contour>
      <point x="118" y="691" type="line"/>
      <point x="326" y="691" type="line"/>
      <point x="326" y="1229" type="line"/>
      <point x="118" y="1229" type="line"/>
    </contour>
    <contour>
      <point x="118" y="712" type="line"/>
      <point x="326" y="712" type="line"/>
      <point x="326" y="755" type="line" smooth="yes"/>
      <point x="326" y="817"/>
      <point x="351" y="846"/>
      <point x="402" y="846" type="curve" smooth="yes"/>
      <point x="517" y="846" type="line"/>
      <point x="517" y="1050" type="line"/>
      <point x="371" y="1050" type="line" smooth="yes"/>
      <point x="218" y="1050"/>
      <point x="118" y="950"/>
      <point x="118" y="765" type="curve" smooth="yes"/>
    </contour>
    <contour>
      <point x="-326" y="1420" type="line"/>
      <point x="-118" y="1420" type="line"/>
      <point x="-118" y="1562" type="line"/>
      <point x="-326" y="1562" type="line"/>
    </contour>
    <contour>
      <point x="830" y="333" type="line"/>
      <point x="1038" y="333" type="line"/>
      <point x="1038" y="717" type="line"/>
      <point x="830" y="717" type="line"/>
    </contour>
    <contour>
      <point x="425" y="846" type="line"/>
      <point x="731" y="846" type="line"/>
      <point x="731" y="1050" type="line"/>
      <point x="425" y="1050" type="line"/>
    </contour>
    <contour>
      <point x="118" y="1203" type="line"/>
      <point x="326" y="1203" type="line"/>
      <point x="326" y="1267" type="line" smooth="yes"/>
      <point x="326" y="1329"/>
      <point x="351" y="1358"/>
      <point x="402" y="1358" type="curve" smooth="yes"/>
      <point x="517" y="1358" type="line"/>
      <point x="517" y="1562" type="line"/>
      <point x="371" y="1562" type="line" smooth="yes"/>
      <point x="218" y="1562"/>
      <point x="118" y="1462"/>
      <point x="118" y="1277" type="curve" smooth="yes"/>
    </contour>
    <contour>
      <point x="830" y="712" type="line"/>
      <point x="1038" y="712" type="line"/>
      <point x="1038" y="765" type="line" smooth="yes"/>
      <point x="1038" y="950"/>
      <point x="939" y="1050"/>
      <point x="785" y="1050" type="curve" smooth="yes"/>
      <point x="639" y="1050" type="line"/>
      <point x="639" y="846" type="line"/>
      <point x="754" y="846" type="line" smooth="yes"/>
      <point x="805" y="846"/>
      <point x="830" y="817"/>
      <point x="830" y="755" type="curve" smooth="yes"/>
    </contour>
    <contour>
      <point x="425" y="1358" type="line"/>
      <point x="731" y="1358" type="line"/>
      <point x="731" y="1562" type="line"/>
      <point x="425" y="1562" type="line"/>
    </contour>
    <contour>
      <point x="639" y="1112" type="line"/>
      <point x="1038" y="1112" type="line"/>
      <point x="1038" y="1296" type="line"/>
      <point x="639" y="1296" type="line"/>
    </contour>
  </outline>
</glyph>
<glyph name="uniA92B" format="2">
  <unicode hex="A92B"/>
  <outline>
    <contour>
      <point x="-515" y="-412" type="line"/>
      <point x="-515" y="-212" type="line"/>
      <point x="-714" y="-212" type="line"/>
      <point x="-714" y="-412" type="line"/>
    </contour>
  </outline>
</glyph>
<glyph name="uniA92C" format="2">
  <unicode hex="A92C"/>
  <outline>
    <component base="midS" xOffset="-1156" yOffset="-525"/>
    <contour>
      <point x="-517" y="-525" type="line"/>
      <point x="-371" y="-525" type="line" smooth="yes"/>
      <point x="-217" y="-525"/>
      <point x="-118" y="-425"/>
      <point x="-118" y="-241" type="curve" smooth="yes"/>
      <point x="-118" y="-147" type="line"/>
      <point x="-326" y="-147" type="line"/>
      <point x="-326" y="-231" type="line" smooth="yes"/>
      <point x="-326" y="-292"/>
      <point x="-351" y="-321"/>
      <point x="-402" y="-321" type="curve" smooth="yes"/>
      <point x="-517" y="-321" type="line"/>
    </contour>
    <contour>
      <point x="-785" y="-525" type="curve" smooth="yes"/>
      <point x="-639" y="-525" type="line"/>
      <point x="-639" y="-321" type="line"/>
      <point x="-754" y="-321" type="line" smooth="yes"/>
      <point x="-805" y="-321"/>
      <point x="-830" y="-292"/>
      <point x="-830" y="-231" type="curve" smooth="yes"/>
      <point x="-830" y="-147" type="line"/>
      <point x="-1038" y="-147" type="line"/>
      <point x="-1038" y="-241" type="line" smooth="yes"/>
      <point x="-1038" y="-425"/>
      <point x="-938" y="-525"/>
    </contour>
    <contour>
      <point x="-756" y="25" type="curve"/>
      <point x="-848" y="172" type="line"/>
      <point x="-958" y="111"/>
      <point x="-1038" y="-2"/>
      <point x="-1038" y="-131" type="curve" smooth="yes"/>
      <point x="-1038" y="-184" type="line"/>
      <point x="-830" y="-184" type="line"/>
      <point x="-830" y="-141" type="line" smooth="yes"/>
      <point x="-830" y="-88"/>
      <point x="-808" y="-13"/>
    </contour>
  </outline>
</glyph>
<glyph name="uniA92D" format="2">
  <unicode hex="A92D"/>
  <outline>
    <component base="midS" xOffset="-1156" yOffset="-525"/>
    <component base="circleNW" xOffset="-1156" yOffset="-846"/>
    <contour>
      <point x="-785" y="-525" type="curve" smooth="yes"/>
      <point x="-639" y="-525" type="line"/>
      <point x="-639" y="-321" type="line"/>
      <point x="-754" y="-321" type="line" smooth="yes"/>
      <point x="-805" y="-321"/>
      <point x="-830" y="-292"/>
      <point x="-830" y="-231" type="curve" smooth="yes"/>
      <point x="-830" y="-107" type="line"/>
      <point x="-1038" y="-107" type="line"/>
      <point x="-1038" y="-241" type="line" smooth="yes"/>
      <point x="-1038" y="-425"/>
      <point x="-938" y="-525"/>
    </contour>
    <contour>
      <point x="-682" y="-255" type="line"/>
      <point x="-474" y="-255" type="line"/>
      <point x="-474" y="-67" type="line"/>
      <point x="-682" y="-67" type="line"/>
    </contour>
    <contour>
      <point x="-517" y="-525" type="line"/>
      <point x="-371" y="-525" type="line" smooth="yes"/>
      <point x="-217" y="-525"/>
      <point x="-118" y="-425"/>
      <point x="-118" y="-241" type="curve" smooth="yes"/>
      <point x="-118" y="-147" type="line"/>
      <point x="-326" y="-147" type="line"/>
      <point x="-326" y="-231" type="line" smooth="yes"/>
      <point x="-326" y="-292"/>
      <point x="-351" y="-321"/>
      <point x="-402" y="-321" type="curve" smooth="yes"/>
      <point x="-517" y="-321" type="line"/>
    </contour>
  </outline>
</glyph>
<glyph name="uniA92E" format="2">
  <advance width="1391"/>
  <unicode hex="A92E"/>
  <outline>
    <contour>
      <point x="659" y="157" type="curve" smooth="yes"/>
      <point x="723" y="157"/>
      <point x="812" y="140"/>
      <point x="876" y="115" type="curve" smooth="yes"/>
      <point x="941" y="90"/>
      <point x="1001" y="51"/>
      <point x="1011" y="0" type="curve"/>
      <point x="1234" y="0" type="line"/>
      <point x="1220" y="76"/>
      <point x="1178" y="140"/>
      <point x="1116" y="192" type="curve" smooth="yes"/>
      <point x="1087" y="218"/>
      <point x="1052" y="241"/>
      <point x="1015" y="261" type="curve" smooth="yes"/>
      <point x="940" y="302"/>
      <point x="858" y="329"/>
      <point x="776" y="343" type="curve" smooth="yes"/>
      <point x="735" y="351"/>
      <point x="696" y="355"/>
      <point x="659" y="355" type="curve" smooth="yes"/>
      <point x="586" y="355"/>
      <point x="502" y="339"/>
      <point x="421" y="312" type="curve" smooth="yes"/>
      <point x="381" y="298"/>
      <point x="342" y="282"/>
      <point x="305" y="261" type="curve" smooth="yes"/>
      <point x="229" y="220"/>
      <point x="168" y="169"/>
      <point x="127" y="105" type="curve" smooth="yes"/>
      <point x="106" y="72"/>
      <point x="92" y="37"/>
      <point x="86" y="0" type="curve"/>
      <point x="308" y="0" type="line"/>
      <point x="316" y="50"/>
      <point x="380" y="91"/>
      <point x="443" y="115" type="curve" smooth="yes"/>
      <point x="507" y="140"/>
      <point x="596" y="157"/>
    </contour>
  </outline>
</glyph>
<glyph name="uniA92F" format="2">
  <advance width="361"/>
  <unicode hex="A92F"/>
  <outline>
    <contour>
      <point x="274" y="0" type="line"/>
      <point x="274" y="1046" type="line"/>
      <point x="76" y="1050" type="line"/>
      <point x="76" y="0" type="line"/>
    </contour>
  </outline>
</glyph>
<glyph name="_klascNE" format="2">
  <advance width="1156"/>
  <outline>
    <contour>
      <point x="830" y="1203" type="line"/>
      <point x="1038" y="1203" type="line"/>
      <point x="1038" y="1277" type="line" smooth="yes"/>
      <point x="1038" y="1462"/>
      <point x="939" y="1562"/>
      <point x="785" y="1562" type="curve" smooth="yes"/>
      <point x="639" y="1562" type="line"/>
      <point x="639" y="1358" type="line"/>
      <point x="754" y="1358" type="line" smooth="yes"/>
      <point x="805" y="1358"/>
      <point x="830" y="1329"/>
      <point x="830" y="1267" type="curve" smooth="yes"/>
    </contour>
    <contour>
      <point x="118" y="1112" type="line"/>
      <point x="517" y="1112" type="line"/>
      <point x="517" y="1296" type="line"/>
      <point x="222" y="1296" type="line"/>
      <point x="118" y="1266" type="line"/>
    </contour>
    <contour>
      <point x="118" y="1203" type="line"/>
      <point x="326" y="1203" type="line"/>
      <point x="326" y="1267" type="line" smooth="yes"/>
      <point x="326" y="1329"/>
      <point x="351" y="1358"/>
      <point x="402" y="1358" type="curve" smooth="yes"/>
      <point x="517" y="1358" type="line"/>
      <point x="517" y="1562" type="line"/>
      <point x="371" y="1562" type="line" smooth="yes"/>
      <point x="218" y="1562"/>
      <point x="118" y="1462"/>
      <point x="118" y="1277" type="curve" smooth="yes"/>
    </contour>
    <contour>
      <point x="830" y="691" type="line"/>
      <point x="1038" y="691" type="line"/>
      <point x="1038" y="1229" type="line"/>
      <point x="830" y="1229" type="line"/>
    </contour>
    <contour>
      <point x="425" y="1358" type="line"/>
      <point x="731" y="1358" type="line"/>
      <point x="731" y="1562" type="line"/>
      <point x="425" y="1562" type="line"/>
    </contour>
  </outline>
</glyph>
<glyph name="_klcircleSEshort" format="2">
  <advance width="1156"/>
  <outline>
    <contour>
      <point x="699" y="0" type="line"/>
      <point x="785" y="0" type="line" smooth="yes"/>
      <point x="939" y="0"/>
      <point x="1038" y="100"/>
      <point x="1038" y="284" type="curve" smooth="yes"/>
      <point x="1038" y="338" type="line"/>
      <point x="830" y="338" type="line"/>
      <point x="830" y="294" type="line" smooth="yes"/>
      <point x="830" y="233"/>
      <point x="805" y="204"/>
      <point x="754" y="204" type="curve" smooth="yes"/>
      <point x="699" y="204" type="line"/>
    </contour>
  </outline>
</glyph>
<glyph name="_klcirclemidW" format="2">
  <advance width="1156"/>
  <outline>
    <contour>
      <point x="326" y="717" type="curve" smooth="yes"/>
      <point x="326" y="755" type="line" smooth="yes"/>
      <point x="326" y="817"/>
      <point x="351" y="846"/>
      <point x="402" y="846" type="curve" smooth="yes"/>
      <point x="517" y="846" type="line"/>
      <point x="517" y="1050" type="line"/>
      <point x="371" y="1050" type="line" smooth="yes"/>
      <point x="218" y="1050"/>
      <point x="118" y="950"/>
      <point x="118" y="765" type="curve" smooth="yes"/>
      <point x="118" y="717" type="line" smooth="yes"/>
      <point x="118" y="532"/>
      <point x="218" y="433"/>
      <point x="371" y="433" type="curve" smooth="yes"/>
      <point x="579" y="433" type="line"/>
      <point x="579" y="617" type="line"/>
      <point x="402" y="617" type="line" smooth="yes"/>
      <point x="351" y="617"/>
      <point x="326" y="655"/>
    </contour>
    <contour>
      <point x="326" y="294" type="curve" smooth="yes"/>
      <point x="326" y="333" type="line" smooth="yes"/>
      <point x="326" y="394"/>
      <point x="351" y="433"/>
      <point x="402" y="433" type="curve" smooth="yes"/>
      <point x="579" y="433" type="line"/>
      <point x="579" y="617" type="line"/>
      <point x="371" y="617" type="line" smooth="yes"/>
      <point x="218" y="617"/>
      <point x="118" y="517"/>
      <point x="118" y="333" type="curve" smooth="yes"/>
      <point x="118" y="284" type="line" smooth="yes"/>
      <point x="118" y="100"/>
      <point x="218" y="0"/>
      <point x="371" y="0" type="curve" smooth="yes"/>
      <point x="517" y="0" type="line"/>
      <point x="517" y="204" type="line"/>
      <point x="402" y="204" type="line" smooth="yes"/>
      <point x="351" y="204"/>
      <point x="326" y="233"/>
    </contour>
  </outline>
</glyph>
<glyph name="_kldiagNW" format="2">
  <advance width="1156"/>
  <outline>
    <contour>
      <point x="525" y="1050" type="line"/>
      <point x="462" y="1050" type="line"/>
      <point x="223" y="805" type="line"/>
      <point x="223" y="539" type="line"/>
      <point x="525" y="846" type="line"/>
    </contour>
  </outline>
</glyph>
<glyph name="_klhookascE" format="2">
  <advance width="1156"/>
  <outline>
    <contour>
      <point x="830" y="947" type="line"/>
      <point x="1038" y="947" type="line"/>
      <point x="1038" y="1459" type="line"/>
      <point x="830" y="1459" type="line"/>
    </contour>
    <contour>
      <point x="700" y="1236" type="line"/>
      <point x="854" y="1344" type="line"/>
      <point x="1038" y="1344" type="line"/>
      <point x="1038" y="1574" type="line"/>
      <point x="854" y="1574" type="line"/>
      <point x="700" y="1467" type="line"/>
    </contour>
  </outline>
</glyph>
<glyph name="_klhookascW" format="2">
  <advance width="1156"/>
  <outline>
    <contour>
      <point x="118" y="947" type="line"/>
      <point x="326" y="947" type="line"/>
      <point x="326" y="1459" type="line"/>
      <point x="118" y="1459" type="line"/>
    </contour>
    <contour>
      <point x="456" y="1236" type="line"/>
      <point x="456" y="1467" type="line"/>
      <point x="302" y="1574" type="line"/>
      <point x="118" y="1574" type="line"/>
      <point x="118" y="1344" type="line"/>
      <point x="302" y="1344" type="line"/>
    </contour>
  </outline>
</glyph>
<glyph name="_klmidline" format="2">
  <advance width="1156"/>
  <outline>
    <contour>
      <point x="118" y="434" type="line"/>
      <point x="1038" y="434" type="line"/>
      <point x="1038" y="618" type="line"/>
      <point x="118" y="618" type="line"/>
    </contour>
  </outline>
</glyph>
<glyph name="_klserifEN" format="2">
  <advance width="1156"/>
  <outline>
    <contour>
      <point x="639" y="558" type="line"/>
      <point x="1038" y="558" type="line"/>
      <point x="1038" y="742" type="line"/>
      <point x="639" y="742" type="line"/>
    </contour>
  </outline>
</glyph>
<glyph name="_klserifENshort" format="2">
  <advance width="1156"/>
  <outline>
    <contour>
      <point x="719" y="558" type="line"/>
      <point x="1038" y="558" type="line"/>
      <point x="1038" y="722" type="line"/>
      <point x="934" y="742" type="line"/>
      <point x="719" y="742" type="line"/>
    </contour>
  </outline>
</glyph>
<glyph name="_klserifWNshort" format="2">
  <advance width="1156"/>
  <outline>
    <contour>
      <point x="118" y="558" type="line"/>
      <point x="437" y="558" type="line"/>
      <point x="437" y="742" type="line"/>
      <point x="222" y="742" type="line"/>
      <point x="118" y="722" type="line"/>
    </contour>
  </outline>
</glyph>
<glyph name="_klserifWSshort" format="2">
  <advance width="1156"/>
  <outline>
    <contour>
      <point x="118" y="328" type="line"/>
      <point x="222" y="308" type="line"/>
      <point x="437" y="308" type="line"/>
      <point x="437" y="492" type="line"/>
      <point x="118" y="492" type="line"/>
    </contour>
  </outline>
</glyph>
<glyph name="_klsqES" format="2">
  <advance width="1156"/>
  <outline>
    <contour>
      <point x="830" y="0" type="line"/>
      <point x="1038" y="0" type="line"/>
      <point x="1038" y="338" type="line"/>
      <point x="830" y="338" type="line"/>
    </contour>
  </outline>
</glyph>
<glyph name="_klsqNWshort" format="2">
  <advance width="1156"/>
  <outline>
    <contour>
      <point x="118" y="846" type="line"/>
      <point x="456" y="846" type="line"/>
      <point x="456" y="1050" type="line"/>
      <point x="118" y="1050" type="line"/>
    </contour>
  </outline>
</glyph>
<glyph name="_klsqSEshort" format="2">
  <advance width="1156"/>
  <outline>
    <contour>
      <point x="700" y="0" type="line"/>
      <point x="1038" y="0" type="line"/>
      <point x="1038" y="204" type="line"/>
      <point x="700" y="204" type="line"/>
    </contour>
  </outline>
</glyph>
<glyph name="_klsqSW" format="2">
  <advance width="1156"/>
  <outline>
    <contour>
      <point x="118" y="0" type="line"/>
      <point x="476" y="0" type="line"/>
      <point x="476" y="204" type="line"/>
      <point x="118" y="204" type="line"/>
    </contour>
  </outline>
</glyph>
<glyph name="_latarchE" format="2">
  <advance width="1156"/>
  <outline>
    <contour>
      <point x="808" y="512" type="line"/>
      <point x="936" y="512" type="line"/>
      <point x="936" y="644" type="line" smooth="yes"/>
      <point x="936" y="897"/>
      <point x="849" y="1050"/>
      <point x="614" y="1050" type="curve" smooth="yes"/>
      <point x="413" y="1050"/>
      <point x="284" y="891"/>
      <point x="238" y="761" type="curve"/>
      <point x="320" y="762" type="line"/>
      <point x="357" y="820"/>
      <point x="461" y="926"/>
      <point x="614" y="926" type="curve" smooth="yes"/>
      <point x="759" y="926"/>
      <point x="808" y="847"/>
      <point x="808" y="632" type="curve" smooth="yes"/>
    </contour>
  </outline>
</glyph>
<glyph name="_latarchW" format="2">
  <advance width="1156"/>
  <outline>
    <contour>
      <point x="92" y="512" type="line"/>
      <point x="220" y="512" type="line"/>
      <point x="220" y="602" type="line" smooth="yes"/>
      <point x="220" y="847"/>
      <point x="269" y="926"/>
      <point x="414" y="926" type="curve" smooth="yes"/>
      <point x="567" y="926"/>
      <point x="691" y="790"/>
      <point x="728" y="732" type="curve"/>
      <point x="810" y="731" type="line"/>
      <point x="764" y="861"/>
      <point x="615" y="1050"/>
      <point x="414" y="1050" type="curve" smooth="yes"/>
      <point x="179" y="1050"/>
      <point x="92" y="897"/>
      <point x="92" y="614" type="curve" smooth="yes"/>
    </contour>
  </outline>
</glyph>
<glyph name="_latbowlE" format="2">
  <advance width="1156"/>
  <outline>
    <contour>
      <point x="634" y="-12" type="curve" smooth="yes"/>
      <point x="869" y="-12"/>
      <point x="956" y="153"/>
      <point x="956" y="436" type="curve" smooth="yes"/>
      <point x="956" y="538" type="line"/>
      <point x="828" y="538" type="line"/>
      <point x="828" y="448" type="line" smooth="yes"/>
      <point x="828" y="203"/>
      <point x="779" y="112"/>
      <point x="634" y="112" type="curve" smooth="yes"/>
      <point x="481" y="112"/>
      <point x="357" y="260"/>
      <point x="320" y="318" type="curve"/>
      <point x="238" y="319" type="line"/>
      <point x="284" y="189"/>
      <point x="433" y="-12"/>
    </contour>
  </outline>
</glyph>
<glyph name="_latbowlW" format="2">
  <advance width="1156"/>
  <outline>
    <contour>
      <point x="514" y="0" type="curve" smooth="yes"/>
      <point x="715" y="0"/>
      <point x="844" y="159"/>
      <point x="890" y="289" type="curve"/>
      <point x="808" y="288" type="line"/>
      <point x="771" y="230"/>
      <point x="667" y="124"/>
      <point x="514" y="124" type="curve" smooth="yes"/>
      <point x="369" y="124"/>
      <point x="320" y="203"/>
      <point x="320" y="418" type="curve" smooth="yes"/>
      <point x="320" y="538" type="line"/>
      <point x="192" y="538" type="line"/>
      <point x="192" y="406" type="line" smooth="yes"/>
      <point x="192" y="153"/>
      <point x="279" y="0"/>
    </contour>
  </outline>
</glyph>
<glyph name="_latcirNE" format="2">
  <advance width="1040"/>
  <outline>
    <contour>
      <point x="768" y="522" type="line"/>
      <point x="896" y="522" type="line"/>
      <point x="896" y="554" type="line" smooth="yes"/>
      <point x="896" y="867"/>
      <point x="781" y="1050"/>
      <point x="518" y="1050" type="curve" smooth="yes"/>
      <point x="492" y="1050" type="line"/>
      <point x="492" y="926" type="line"/>
      <point x="507" y="926" type="line" smooth="yes"/>
      <point x="715" y="926"/>
      <point x="768" y="788"/>
      <point x="768" y="543" type="curve" smooth="yes"/>
    </contour>
  </outline>
</glyph>
<glyph name="_latcirNW" format="2">
  <advance width="1040"/>
  <outline>
    <contour>
      <point x="92" y="522" type="line"/>
      <point x="220" y="522" type="line"/>
      <point x="220" y="543" type="line" smooth="yes"/>
      <point x="220" y="788"/>
      <point x="272" y="926"/>
      <point x="480" y="926" type="curve" smooth="yes"/>
      <point x="496" y="926" type="line"/>
      <point x="496" y="1050" type="line"/>
      <point x="470" y="1050" type="line" smooth="yes"/>
      <point x="207" y="1050"/>
      <point x="92" y="867"/>
      <point x="92" y="554" type="curve" smooth="yes"/>
    </contour>
  </outline>
</glyph>
<glyph name="_latcrossbar" format="2">
  <advance width="748"/>
  <outline>
    <contour>
      <point x="104" y="926" type="line"/>
      <point x="616" y="926" type="line"/>
      <point x="616" y="1050" type="line"/>
      <point x="104" y="1050" type="line"/>
    </contour>
  </outline>
</glyph>
<glyph name="_latcurveSE" format="2">
  <advance width="1040"/>
  <outline>
    <contour>
      <point x="492" y="0" type="line"/>
      <point x="519" y="0" type="line" smooth="yes"/>
      <point x="772" y="0"/>
      <point x="872" y="172"/>
      <point x="872" y="288" type="curve"/>
      <point x="872" y="293" type="line"/>
      <point x="744" y="293" type="line"/>
      <point x="744" y="288" type="line"/>
      <point x="744" y="235"/>
      <point x="700" y="124"/>
      <point x="508" y="124" type="curve" smooth="yes"/>
      <point x="492" y="124" type="line"/>
    </contour>
  </outline>
</glyph>
<glyph name="_latdot" format="2">
  <advance width="1156"/>
  <outline>
    <contour>
      <point x="192" y="1272" type="line"/>
      <point x="380" y="1272" type="line"/>
      <point x="380" y="1460" type="line"/>
      <point x="192" y="1460" type="line"/>
    </contour>
  </outline>
</glyph>
<glyph name="_latroundarchE" format="2">
  <advance width="1156"/>
  <outline>
    <contour>
      <point x="828" y="512" type="line"/>
      <point x="956" y="512" type="line"/>
      <point x="956" y="614" type="line" smooth="yes"/>
      <point x="956" y="867"/>
      <point x="849" y="1050"/>
      <point x="614" y="1050" type="curve" smooth="yes"/>
      <point x="413" y="1050"/>
      <point x="284" y="891"/>
      <point x="238" y="761" type="curve"/>
      <point x="320" y="762" type="line"/>
      <point x="357" y="820"/>
      <point x="461" y="926"/>
      <point x="614" y="926" type="curve" smooth="yes"/>
      <point x="759" y="926"/>
      <point x="828" y="817"/>
      <point x="828" y="602" type="curve" smooth="yes"/>
    </contour>
  </outline>
</glyph>
<glyph name="_latroundarchW" format="2">
  <advance width="1156"/>
  <outline>
    <contour>
      <point x="92" y="512" type="line"/>
      <point x="220" y="512" type="line"/>
      <point x="220" y="602" type="line" smooth="yes"/>
      <point x="220" y="817"/>
      <point x="289" y="926"/>
      <point x="434" y="926" type="curve" smooth="yes"/>
      <point x="587" y="926"/>
      <point x="691" y="820"/>
      <point x="728" y="762" type="curve"/>
      <point x="810" y="761" type="line"/>
      <point x="764" y="891"/>
      <point x="635" y="1050"/>
      <point x="434" y="1050" type="curve" smooth="yes"/>
      <point x="199" y="1050"/>
      <point x="92" y="867"/>
      <point x="92" y="614" type="curve" smooth="yes"/>
    </contour>
  </outline>
</glyph>
<glyph name="_latroundbowlW" format="2">
  <advance width="1156"/>
  <outline>
    <contour>
      <point x="434" y="-12" type="curve" smooth="yes"/>
      <point x="635" y="-12"/>
      <point x="764" y="147"/>
      <point x="810" y="277" type="curve"/>
      <point x="728" y="276" type="line"/>
      <point x="691" y="218"/>
      <point x="587" y="112"/>
      <point x="434" y="112" type="curve" smooth="yes"/>
      <point x="289" y="112"/>
      <point x="220" y="221"/>
      <point x="220" y="436" type="curve" smooth="yes"/>
      <point x="220" y="538" type="line"/>
      <point x="92" y="538" type="line"/>
      <point x="92" y="424" type="line" smooth="yes"/>
      <point x="92" y="171"/>
      <point x="199" y="-12"/>
    </contour>
  </outline>
</glyph>
<glyph name="_latserifNE" format="2">
  <advance width="1156"/>
  <outline>
    <contour>
      <point x="680" y="914" type="line"/>
      <point x="1064" y="914" type="line"/>
      <point x="1064" y="1038" type="line"/>
      <point x="680" y="1038" type="line"/>
    </contour>
  </outline>
</glyph>
<glyph name="_latserifNW" format="2">
  <advance width="1156"/>
  <outline>
    <contour>
      <point x="64" y="914" type="line"/>
      <point x="448" y="914" type="line"/>
      <point x="448" y="1038" type="line"/>
      <point x="64" y="1038" type="line"/>
    </contour>
  </outline>
</glyph>
<glyph name="_latserifSE" format="2">
  <advance width="1156"/>
  <outline>
    <contour>
      <point x="680" y="0" type="line"/>
      <point x="1064" y="0" type="line"/>
      <point x="1064" y="124" type="line"/>
      <point x="680" y="124" type="line"/>
    </contour>
  </outline>
</glyph>
<glyph name="_latstemNE" format="2">
  <advance width="1156"/>
  <outline>
    <contour>
      <point x="808" y="512" type="line"/>
      <point x="936" y="512" type="line"/>
      <point x="936" y="1050" type="line"/>
      <point x="808" y="1050" type="line"/>
    </contour>
  </outline>
</glyph>
<glyph name="_latstemascW" format="2">
  <advance width="1156"/>
  <outline>
    <contour>
      <point x="192" y="986" type="line"/>
      <point x="320" y="986" type="line"/>
      <point x="320" y="1574" type="line"/>
      <point x="192" y="1574" type="line"/>
    </contour>
  </outline>
</glyph>
<glyph name="_latstemdescW" format="2">
  <advance width="1156"/>
  <outline>
    <contour>
      <point x="192" y="-524" type="line"/>
      <point x="320" y="-524" type="line"/>
      <point x="320" y="62" type="line"/>
      <point x="192" y="62" type="line"/>
    </contour>
  </outline>
</glyph>
<glyph name=".notdef" format="2">
  <advance width="1933"/>
  <outline>
    <contour>
      <point x="287" y="0" type="line"/>
      <point x="1601" y="0" type="line"/>
      <point x="1601" y="1620" type="line"/>
      <point x="287" y="1620" type="line"/>
    </contour>
    <contour>
      <point x="1476" y="125" type="line"/>
      <point x="412" y="125" type="line"/>
      <point x="412" y="1496" type="line"/>
      <point x="1476" y="1496" type="line"/>
    </contour>
  </outline>
</glyph>
<glyph name="ascNE" format="2">
  <advance width="1157"/>
  <outline>
    <contour>
      <point x="829" y="1203" type="line"/>
      <point x="1039" y="1203" type="line"/>
      <point x="1039" y="1277" type="line" smooth="yes"/>
      <point x="1039" y="1462"/>
      <point x="940" y="1562"/>
      <point x="786" y="1562" type="curve" smooth="yes"/>
      <point x="640" y="1562" type="line"/>
      <point x="640" y="1357" type="line"/>
      <point x="755" y="1357" type="line" smooth="yes"/>
      <point x="806" y="1357"/>
      <point x="829" y="1329"/>
      <point x="829" y="1267" type="curve" smooth="yes"/>
    </contour>
    <contour>
      <point x="118" y="1111" type="line"/>
      <point x="517" y="1111" type="line"/>
      <point x="517" y="1295" type="line"/>
      <point x="118" y="1295" type="line"/>
    </contour>
    <contour>
      <point x="118" y="1203" type="line"/>
      <point x="328" y="1203" type="line"/>
      <point x="328" y="1267" type="line" smooth="yes"/>
      <point x="328" y="1329"/>
      <point x="351" y="1357"/>
      <point x="402" y="1357" type="curve" smooth="yes"/>
      <point x="517" y="1357" type="line"/>
      <point x="517" y="1562" type="line"/>
      <point x="371" y="1562" type="line" smooth="yes"/>
      <point x="218" y="1562"/>
      <point x="118" y="1462"/>
      <point x="118" y="1277" type="curve" smooth="yes"/>
    </contour>
    <contour>
      <point x="829" y="691" type="line"/>
      <point x="1039" y="691" type="line"/>
      <point x="1039" y="1229" type="line"/>
      <point x="829" y="1229" type="line"/>
    </contour>
    <contour>
      <point x="425" y="1357" type="line"/>
      <point x="732" y="1357" type="line"/>
      <point x="732" y="1562" type="line"/>
      <point x="425" y="1562" type="line"/>
    </contour>
  </outline>
</glyph>
<glyph name="asccomp" format="2">
  <advance width="904"/>
  <outline>
    <contour>
      <point x="648" y="940" type="line"/>
      <point x="812" y="940" type="line"/>
      <point x="812" y="998" type="line" smooth="yes"/>
      <point x="812" y="1142"/>
      <point x="734" y="1220"/>
      <point x="614" y="1220" type="curve" smooth="yes"/>
      <point x="500" y="1220" type="line"/>
      <point x="500" y="1060" type="line"/>
      <point x="590" y="1060" type="line" smooth="yes"/>
      <point x="630" y="1060"/>
      <point x="648" y="1038"/>
      <point x="648" y="990" type="curve" smooth="yes"/>
    </contour>
    <contour>
      <point x="92" y="540" type="line"/>
      <point x="256" y="540" type="line"/>
      <point x="256" y="960" type="line"/>
      <point x="92" y="960" type="line"/>
    </contour>
    <contour>
      <point x="92" y="868" type="line"/>
      <point x="404" y="868" type="line"/>
      <point x="404" y="1012" type="line"/>
      <point x="92" y="1012" type="line"/>
    </contour>
    <contour>
      <point x="92" y="940" type="line"/>
      <point x="256" y="940" type="line"/>
      <point x="256" y="990" type="line" smooth="yes"/>
      <point x="256" y="1038"/>
      <point x="274" y="1060"/>
      <point x="314" y="1060" type="curve" smooth="yes"/>
      <point x="404" y="1060" type="line"/>
      <point x="404" y="1220" type="line"/>
      <point x="290" y="1220" type="line" smooth="yes"/>
      <point x="170" y="1220"/>
      <point x="92" y="1142"/>
      <point x="92" y="998" type="curve" smooth="yes"/>
    </contour>
    <contour>
      <point x="648" y="540" type="line"/>
      <point x="812" y="540" type="line"/>
      <point x="812" y="960" type="line"/>
      <point x="648" y="960" type="line"/>
    </contour>
    <contour>
      <point x="500" y="868" type="line"/>
      <point x="812" y="868" type="line"/>
      <point x="812" y="1012" type="line"/>
      <point x="500" y="1012" type="line"/>
    </contour>
    <contour>
      <point x="332" y="1060" type="line"/>
      <point x="572" y="1060" type="line"/>
      <point x="572" y="1220" type="line"/>
      <point x="332" y="1220" type="line"/>
    </contour>
  </outline>
</glyph>
<glyph name="circleNE" format="2">
  <advance width="904"/>
  <outline>
    <contour>
      <point x="648" y="556" type="line"/>
      <point x="812" y="556" type="line"/>
      <point x="812" y="598" type="line" smooth="yes"/>
      <point x="812" y="742"/>
      <point x="734" y="820"/>
      <point x="614" y="820" type="curve" smooth="yes"/>
      <point x="500" y="820" type="line"/>
      <point x="500" y="660" type="line"/>
      <point x="590" y="660" type="line" smooth="yes"/>
      <point x="630" y="660"/>
      <point x="648" y="638"/>
      <point x="648" y="590" type="curve" smooth="yes"/>
    </contour>
  </outline>
</glyph>
<glyph name="circleNW" format="2">
  <advance width="904"/>
  <outline>
    <contour>
      <point x="92" y="556" type="line"/>
      <point x="256" y="556" type="line"/>
      <point x="256" y="590" type="line" smooth="yes"/>
      <point x="256" y="638"/>
      <point x="274" y="660"/>
      <point x="314" y="660" type="curve" smooth="yes"/>
      <point x="404" y="660" type="line"/>
      <point x="404" y="820" type="line"/>
      <point x="290" y="820" type="line" smooth="yes"/>
      <point x="170" y="820"/>
      <point x="92" y="742"/>
      <point x="92" y="598" type="curve" smooth="yes"/>
    </contour>
  </outline>
</glyph>
<glyph name="circleSE" format="2">
  <advance width="1157"/>
  <outline>
    <contour>
      <point x="640" y="0" type="line"/>
      <point x="786" y="0" type="line" smooth="yes"/>
      <point x="940" y="0"/>
      <point x="1039" y="100"/>
      <point x="1039" y="284" type="curve" smooth="yes"/>
      <point x="1039" y="338" type="line"/>
      <point x="829" y="338" type="line"/>
      <point x="829" y="294" type="line" smooth="yes"/>
      <point x="829" y="233"/>
      <point x="806" y="205"/>
      <point x="755" y="205" type="curve" smooth="yes"/>
      <point x="640" y="205" type="line"/>
    </contour>
  </outline>
</glyph>
<glyph name="circleSW" format="2">
  <advance width="904"/>
  <outline>
    <contour>
      <point x="290" y="0" type="curve" smooth="yes"/>
      <point x="404" y="0" type="line"/>
      <point x="404" y="160" type="line"/>
      <point x="314" y="160" type="line" smooth="yes"/>
      <point x="274" y="160"/>
      <point x="256" y="182"/>
      <point x="256" y="230" type="curve" smooth="yes"/>
      <point x="256" y="264" type="line"/>
      <point x="92" y="264" type="line"/>
      <point x="92" y="222" type="line" smooth="yes"/>
      <point x="92" y="78"/>
      <point x="170" y="0"/>
    </contour>
  </outline>
</glyph>
<glyph name="circlecomp" format="2">
  <advance width="1157"/>
  <outline>
    <contour>
      <point x="829" y="712" type="line"/>
      <point x="1039" y="712" type="line"/>
      <point x="1039" y="765" type="line" smooth="yes"/>
      <point x="1039" y="950"/>
      <point x="940" y="1050"/>
      <point x="786" y="1050" type="curve" smooth="yes"/>
      <point x="640" y="1050" type="line"/>
      <point x="640" y="845" type="line"/>
      <point x="755" y="845" type="line" smooth="yes"/>
      <point x="806" y="845"/>
      <point x="829" y="817"/>
      <point x="829" y="755" type="curve" smooth="yes"/>
    </contour>
    <contour>
      <point x="371" y="0" type="curve" smooth="yes"/>
      <point x="517" y="0" type="line"/>
      <point x="517" y="205" type="line"/>
      <point x="402" y="205" type="line" smooth="yes"/>
      <point x="351" y="205"/>
      <point x="328" y="233"/>
      <point x="328" y="294" type="curve" smooth="yes"/>
      <point x="328" y="338" type="line"/>
      <point x="118" y="338" type="line"/>
      <point x="118" y="284" type="line" smooth="yes"/>
      <point x="118" y="100"/>
      <point x="218" y="0"/>
    </contour>
    <contour>
      <point x="425" y="0" type="line"/>
      <point x="732" y="0" type="line"/>
      <point x="732" y="205" type="line"/>
      <point x="425" y="205" type="line"/>
    </contour>
    <contour>
      <point x="118" y="307" type="line"/>
      <point x="517" y="307" type="line"/>
      <point x="517" y="492" type="line"/>
      <point x="118" y="492" type="line"/>
    </contour>
    <contour>
      <point x="118" y="333" type="line"/>
      <point x="328" y="333" type="line"/>
      <point x="328" y="717" type="line"/>
      <point x="118" y="717" type="line"/>
    </contour>
    <contour>
      <point x="118" y="558" type="line"/>
      <point x="517" y="558" type="line"/>
      <point x="517" y="742" type="line"/>
      <point x="118" y="742" type="line"/>
    </contour>
    <contour>
      <point x="640" y="0" type="line"/>
      <point x="786" y="0" type="line" smooth="yes"/>
      <point x="940" y="0"/>
      <point x="1039" y="100"/>
      <point x="1039" y="284" type="curve" smooth="yes"/>
      <point x="1039" y="338" type="line"/>
      <point x="829" y="338" type="line"/>
      <point x="829" y="294" type="line" smooth="yes"/>
      <point x="829" y="233"/>
      <point x="806" y="205"/>
      <point x="755" y="205" type="curve" smooth="yes"/>
      <point x="640" y="205" type="line"/>
    </contour>
    <contour>
      <point x="118" y="712" type="line"/>
      <point x="328" y="712" type="line"/>
      <point x="328" y="755" type="line" smooth="yes"/>
      <point x="328" y="817"/>
      <point x="351" y="845"/>
      <point x="402" y="845" type="curve" smooth="yes"/>
      <point x="517" y="845" type="line"/>
      <point x="517" y="1050" type="line"/>
      <point x="371" y="1050" type="line" smooth="yes"/>
      <point x="218" y="1050"/>
      <point x="118" y="950"/>
      <point x="118" y="765" type="curve" smooth="yes"/>
    </contour>
    <contour>
      <point x="640" y="307" type="line"/>
      <point x="1039" y="307" type="line"/>
      <point x="1039" y="492" type="line"/>
      <point x="640" y="492" type="line"/>
    </contour>
    <contour>
      <point x="829" y="333" type="line"/>
      <point x="1039" y="333" type="line"/>
      <point x="1039" y="717" type="line"/>
      <point x="829" y="717" type="line"/>
    </contour>
    <contour>
      <point x="640" y="558" type="line"/>
      <point x="1039" y="558" type="line"/>
      <point x="1039" y="742" type="line"/>
      <point x="640" y="742" type="line"/>
    </contour>
    <contour>
      <point x="425" y="845" type="line"/>
      <point x="732" y="845" type="line"/>
      <point x="732" y="1050" type="line"/>
      <point x="425" y="1050" type="line"/>
    </contour>
  </outline>
</glyph>
<glyph name="circlemidW" format="2">
  <advance width="904"/>
  <outline>
    <contour>
      <point x="256" y="560" type="curve" smooth="yes"/>
      <point x="256" y="590" type="line" smooth="yes"/>
      <point x="256" y="638"/>
      <point x="274" y="660"/>
      <point x="314" y="660" type="curve" smooth="yes"/>
      <point x="404" y="660" type="line"/>
      <point x="404" y="820" type="line"/>
      <point x="290" y="820" type="line" smooth="yes"/>
      <point x="170" y="820"/>
      <point x="92" y="742"/>
      <point x="92" y="598" type="curve" smooth="yes"/>
      <point x="92" y="560" type="line" smooth="yes"/>
      <point x="92" y="416"/>
      <point x="170" y="338"/>
      <point x="290" y="338" type="curve" smooth="yes"/>
      <point x="452" y="338" type="line"/>
      <point x="452" y="482" type="line"/>
      <point x="314" y="482" type="line" smooth="yes"/>
      <point x="274" y="482"/>
      <point x="256" y="512"/>
    </contour>
    <contour>
      <point x="256" y="230" type="curve" smooth="yes"/>
      <point x="256" y="260" type="line" smooth="yes"/>
      <point x="256" y="308"/>
      <point x="274" y="338"/>
      <point x="314" y="338" type="curve" smooth="yes"/>
      <point x="452" y="338" type="line"/>
      <point x="452" y="482" type="line"/>
      <point x="290" y="482" type="line" smooth="yes"/>
      <point x="170" y="482"/>
      <point x="92" y="404"/>
      <point x="92" y="260" type="curve" smooth="yes"/>
      <point x="92" y="222" type="line" smooth="yes"/>
      <point x="92" y="78"/>
      <point x="170" y="0"/>
      <point x="290" y="0" type="curve" smooth="yes"/>
      <point x="404" y="0" type="line"/>
      <point x="404" y="160" type="line"/>
      <point x="314" y="160" type="line" smooth="yes"/>
      <point x="274" y="160"/>
      <point x="256" y="182"/>
    </contour>
  </outline>
</glyph>
<glyph name="descSE" format="2">
  <advance width="1157"/>
  <outline>
    <contour>
      <point x="640" y="-525" type="line"/>
      <point x="786" y="-525" type="line" smooth="yes"/>
      <point x="940" y="-525"/>
      <point x="1039" y="-425"/>
      <point x="1039" y="-241" type="curve" smooth="yes"/>
      <point x="1039" y="-166" type="line"/>
      <point x="829" y="-166" type="line"/>
      <point x="829" y="-230" type="line" smooth="yes"/>
      <point x="829" y="-292"/>
      <point x="806" y="-320"/>
      <point x="755" y="-320" type="curve" smooth="yes"/>
      <point x="640" y="-320" type="line"/>
    </contour>
    <contour>
      <point x="829" y="-218" type="line"/>
      <point x="1039" y="-218" type="line"/>
      <point x="1039" y="358" type="line"/>
      <point x="829" y="358" type="line"/>
    </contour>
  </outline>
</glyph>
<glyph name="descSW" format="2">
  <advance width="904"/>
  <outline>
    <contour>
      <point x="290" y="-410" type="curve" smooth="yes"/>
      <point x="404" y="-410" type="line"/>
      <point x="404" y="-250" type="line"/>
      <point x="314" y="-250" type="line" smooth="yes"/>
      <point x="274" y="-250"/>
      <point x="256" y="-228"/>
      <point x="256" y="-180" type="curve" smooth="yes"/>
      <point x="256" y="-130" type="line"/>
      <point x="92" y="-130" type="line"/>
      <point x="92" y="-188" type="line" smooth="yes"/>
      <point x="92" y="-332"/>
      <point x="170" y="-410"/>
    </contour>
    <contour>
      <point x="92" y="-170" type="line"/>
      <point x="256" y="-170" type="line"/>
      <point x="256" y="280" type="line"/>
      <point x="92" y="280" type="line"/>
    </contour>
  </outline>
</glyph>
<glyph name="desccomp" format="2">
  <advance width="1156"/>
  <outline>
    <contour>
      <point x="371" y="-526" type="curve" smooth="yes"/>
      <point x="517" y="-526" type="line"/>
      <point x="517" y="-322" type="line"/>
      <point x="402" y="-322" type="line" smooth="yes"/>
      <point x="351" y="-322"/>
      <point x="326" y="-293"/>
      <point x="326" y="-231" type="curve" smooth="yes"/>
      <point x="326" y="-167" type="line"/>
      <point x="118" y="-167" type="line"/>
      <point x="118" y="-242" type="line" smooth="yes"/>
      <point x="118" y="-426"/>
      <point x="218" y="-526"/>
    </contour>
    <contour>
      <point x="425" y="-526" type="line"/>
      <point x="731" y="-526" type="line"/>
      <point x="731" y="-322" type="line"/>
      <point x="425" y="-322" type="line"/>
    </contour>
    <contour>
      <point x="118" y="-219" type="line"/>
      <point x="326" y="-219" type="line"/>
      <point x="326" y="358" type="line"/>
      <point x="118" y="358" type="line"/>
    </contour>
    <contour>
      <point x="118" y="-252" type="line"/>
      <point x="517" y="-252" type="line"/>
      <point x="517" y="-68" type="line"/>
      <point x="118" y="-68" type="line"/>
    </contour>
    <contour>
      <point x="639" y="-526" type="line"/>
      <point x="785" y="-526" type="line" smooth="yes"/>
      <point x="939" y="-526"/>
      <point x="1038" y="-426"/>
      <point x="1038" y="-242" type="curve" smooth="yes"/>
      <point x="1038" y="-167" type="line"/>
      <point x="830" y="-167" type="line"/>
      <point x="830" y="-231" type="line" smooth="yes"/>
      <point x="830" y="-293"/>
      <point x="805" y="-322"/>
      <point x="754" y="-322" type="curve" smooth="yes"/>
      <point x="639" y="-322" type="line"/>
    </contour>
    <contour>
      <point x="830" y="-219" type="line"/>
      <point x="1038" y="-219" type="line"/>
      <point x="1038" y="358" type="line"/>
      <point x="830" y="358" type="line"/>
    </contour>
    <contour>
      <point x="639" y="-252" type="line"/>
      <point x="1038" y="-252" type="line"/>
      <point x="1038" y="-68" type="line"/>
      <point x="639" y="-68" type="line"/>
    </contour>
  </outline>
</glyph>
<glyph name="descserifSE" format="2">
  <advance width="904"/>
  <outline>
    <contour>
      <point x="332" y="-410" type="line"/>
      <point x="572" y="-410" type="line"/>
      <point x="572" y="-250" type="line"/>
      <point x="332" y="-250" type="line"/>
    </contour>
    <contour>
      <point x="500" y="-410" type="line"/>
      <point x="614" y="-410" type="line" smooth="yes"/>
      <point x="734" y="-410"/>
      <point x="812" y="-332"/>
      <point x="812" y="-188" type="curve" smooth="yes"/>
      <point x="812" y="-130" type="line"/>
      <point x="648" y="-130" type="line"/>
      <point x="648" y="-180" type="line" smooth="yes"/>
      <point x="648" y="-228"/>
      <point x="630" y="-250"/>
      <point x="590" y="-250" type="curve" smooth="yes"/>
      <point x="500" y="-250" type="line"/>
    </contour>
    <contour>
      <point x="500" y="-197" type="line"/>
      <point x="812" y="-197" type="line"/>
      <point x="812" y="-53" type="line"/>
      <point x="500" y="-53" type="line"/>
    </contour>
  </outline>
</glyph>
<glyph name="descserifSW" format="2">
  <advance width="1157"/>
  <outline>
    <contour>
      <point x="371" y="-525" type="curve" smooth="yes"/>
      <point x="517" y="-525" type="line"/>
      <point x="517" y="-320" type="line"/>
      <point x="402" y="-320" type="line" smooth="yes"/>
      <point x="351" y="-320"/>
      <point x="328" y="-292"/>
      <point x="328" y="-230" type="curve" smooth="yes"/>
      <point x="328" y="-166" type="line"/>
      <point x="118" y="-166" type="line"/>
      <point x="118" y="-241" type="line" smooth="yes"/>
      <point x="118" y="-425"/>
      <point x="218" y="-525"/>
    </contour>
    <contour>
      <point x="425" y="-525" type="line"/>
      <point x="732" y="-525" type="line"/>
      <point x="732" y="-320" type="line"/>
      <point x="425" y="-320" type="line"/>
    </contour>
    <contour>
      <point x="118" y="-252" type="line"/>
      <point x="517" y="-252" type="line"/>
      <point x="517" y="-68" type="line"/>
      <point x="118" y="-68" type="line"/>
    </contour>
  </outline>
</glyph>
<glyph name="diagNW" format="2">
  <advance width="904"/>
  <outline>
    <contour>
      <point x="410" y="820" type="line"/>
      <point x="361" y="820" type="line"/>
      <point x="174" y="629" type="line"/>
      <point x="174" y="420" type="line"/>
      <point x="410" y="660" type="line"/>
    </contour>
  </outline>
</glyph>
<glyph name="diagNWSE" format="2">
  <advance width="1157"/>
  <outline>
    <contour>
      <point x="1039" y="403" type="line"/>
      <point x="328" y="749" type="line"/>
      <point x="118" y="749" type="line"/>
      <point x="118" y="646" type="line"/>
      <point x="829" y="301" type="line"/>
      <point x="829" y="301"/>
      <point x="1039" y="301"/>
      <point x="1039" y="301" type="curve"/>
    </contour>
  </outline>
</glyph>
<glyph name="diagSE" format="2">
  <advance width="904"/>
  <outline>
    <contour>
      <point x="358" y="160" type="line"/>
      <point x="358" y="0" type="line"/>
      <point x="404" y="0" type="line"/>
      <point x="762" y="354" type="line"/>
      <point x="762" y="562" type="line"/>
    </contour>
  </outline>
</glyph>
<glyph name="diagSWNE" format="2">
  <advance width="1156"/>
  <outline>
    <contour>
      <point x="118" y="403" type="line"/>
      <point x="118" y="301" type="line"/>
      <point x="118" y="301"/>
      <point x="328" y="301"/>
      <point x="328" y="301" type="curve"/>
      <point x="1038" y="646" type="line"/>
      <point x="1038" y="749" type="line"/>
      <point x="828" y="749" type="line"/>
    </contour>
  </outline>
</glyph>
<glyph name="diagcomp" format="2">
  <advance width="904"/>
  <outline>
    <contour>
      <point x="92" y="315" type="line"/>
      <point x="92" y="235" type="line"/>
      <point x="92" y="235"/>
      <point x="256" y="235"/>
      <point x="256" y="235" type="curve"/>
      <point x="812" y="505" type="line"/>
      <point x="812" y="585" type="line"/>
      <point x="648" y="585" type="line"/>
    </contour>
    <contour>
      <point x="812" y="315" type="line"/>
      <point x="256" y="585" type="line"/>
      <point x="92" y="585" type="line"/>
      <point x="92" y="505" type="line"/>
      <point x="648" y="235" type="line"/>
      <point x="648" y="235"/>
      <point x="812" y="235"/>
      <point x="812" y="235" type="curve"/>
    </contour>
    <contour>
      <point x="290" y="0" type="curve" smooth="yes"/>
      <point x="404" y="0" type="line"/>
      <point x="404" y="160" type="line"/>
      <point x="314" y="160" type="line" smooth="yes"/>
      <point x="274" y="160"/>
      <point x="256" y="182"/>
      <point x="256" y="230" type="curve" smooth="yes"/>
      <point x="256" y="264" type="line"/>
      <point x="92" y="264" type="line"/>
      <point x="92" y="222" type="line" smooth="yes"/>
      <point x="92" y="78"/>
      <point x="170" y="0"/>
    </contour>
    <contour>
      <point x="500" y="0" type="line"/>
      <point x="614" y="0" type="line" smooth="yes"/>
      <point x="734" y="0"/>
      <point x="812" y="78"/>
      <point x="812" y="222" type="curve" smooth="yes"/>
      <point x="812" y="264" type="line"/>
      <point x="648" y="264" type="line"/>
      <point x="648" y="230" type="line" smooth="yes"/>
      <point x="648" y="182"/>
      <point x="630" y="160"/>
      <point x="590" y="160" type="curve" smooth="yes"/>
      <point x="500" y="160" type="line"/>
    </contour>
    <contour>
      <point x="92" y="556" type="line"/>
      <point x="256" y="556" type="line"/>
      <point x="256" y="590" type="line" smooth="yes"/>
      <point x="256" y="638"/>
      <point x="274" y="660"/>
      <point x="314" y="660" type="curve" smooth="yes"/>
      <point x="404" y="660" type="line"/>
      <point x="404" y="820" type="line"/>
      <point x="290" y="820" type="line" smooth="yes"/>
      <point x="170" y="820"/>
      <point x="92" y="742"/>
      <point x="92" y="598" type="curve" smooth="yes"/>
    </contour>
    <contour>
      <point x="648" y="556" type="line"/>
      <point x="812" y="556" type="line"/>
      <point x="812" y="598" type="line" smooth="yes"/>
      <point x="812" y="742"/>
      <point x="734" y="820"/>
      <point x="614" y="820" type="curve" smooth="yes"/>
      <point x="500" y="820" type="line"/>
      <point x="500" y="660" type="line"/>
      <point x="590" y="660" type="line" smooth="yes"/>
      <point x="630" y="660"/>
      <point x="648" y="638"/>
      <point x="648" y="590" type="curve" smooth="yes"/>
    </contour>
    <contour>
      <point x="326" y="160" type="line"/>
      <point x="326" y="0" type="line"/>
      <point x="372" y="0" type="line"/>
      <point x="730" y="354" type="line"/>
      <point x="730" y="562" type="line"/>
    </contour>
    <contour>
      <point x="410" y="820" type="line"/>
      <point x="356" y="820" type="line"/>
      <point x="174" y="636" type="line"/>
      <point x="174" y="420" type="line"/>
      <point x="410" y="660" type="line"/>
    </contour>
  </outline>
</glyph>
<glyph name="headcir" format="2">
  <advance width="904"/>
  <outline>
    <contour>
      <point x="622" y="0" type="curve" smooth="yes"/>
      <point x="721" y="0"/>
      <point x="802" y="81"/>
      <point x="802" y="180" type="curve" smooth="yes"/>
      <point x="802" y="279"/>
      <point x="721" y="360"/>
      <point x="622" y="360" type="curve" smooth="yes"/>
      <point x="523" y="360"/>
      <point x="442" y="279"/>
      <point x="442" y="180" type="curve" smooth="yes"/>
      <point x="442" y="81"/>
      <point x="523" y="0"/>
    </contour>
    <contour>
      <point x="622" y="140" type="curve" smooth="yes"/>
      <point x="600" y="140"/>
      <point x="582" y="158"/>
      <point x="582" y="180" type="curve" smooth="yes"/>
      <point x="582" y="202"/>
      <point x="600" y="220"/>
      <point x="622" y="220" type="curve" smooth="yes"/>
      <point x="644" y="220"/>
      <point x="662" y="202"/>
      <point x="662" y="180" type="curve" smooth="yes"/>
      <point x="662" y="158"/>
      <point x="644" y="140"/>
    </contour>
  </outline>
</glyph>
<glyph name="hookascE" format="2">
  <advance width="904"/>
  <outline>
    <contour>
      <point x="648" y="740" type="line"/>
      <point x="812" y="740" type="line"/>
      <point x="812" y="1140" type="line"/>
      <point x="648" y="1140" type="line"/>
    </contour>
    <contour>
      <point x="548" y="966" type="line"/>
      <point x="668" y="1050" type="line"/>
      <point x="812" y="1050" type="line"/>
      <point x="812" y="1230" type="line"/>
      <point x="668" y="1230" type="line"/>
      <point x="548" y="1146" type="line"/>
    </contour>
  </outline>
</glyph>
<glyph name="hookascW" format="2">
  <advance width="904"/>
  <outline>
    <contour>
      <point x="92" y="740" type="line"/>
      <point x="256" y="740" type="line"/>
      <point x="256" y="1140" type="line"/>
      <point x="92" y="1140" type="line"/>
    </contour>
    <contour>
      <point x="356" y="966" type="line"/>
      <point x="356" y="1146" type="line"/>
      <point x="236" y="1230" type="line"/>
      <point x="92" y="1230" type="line"/>
      <point x="92" y="1050" type="line"/>
      <point x="236" y="1050" type="line"/>
    </contour>
  </outline>
</glyph>
<glyph name="latcir" format="2">
  <advance width="1106"/>
  <outline>
    <contour>
      <point x="581" y="1050" type="curve" smooth="yes"/>
      <point x="525" y="1050" type="line" smooth="yes"/>
      <point x="269" y="1050"/>
      <point x="118" y="860"/>
      <point x="118" y="573" type="curve" smooth="yes"/>
      <point x="118" y="476" type="line" smooth="yes"/>
      <point x="118" y="189"/>
      <point x="269" y="0"/>
      <point x="525" y="0" type="curve" smooth="yes"/>
      <point x="581" y="0" type="line" smooth="yes"/>
      <point x="837" y="0"/>
      <point x="988" y="189"/>
      <point x="988" y="476" type="curve" smooth="yes"/>
      <point x="988" y="573" type="line" smooth="yes"/>
      <point x="988" y="860"/>
      <point x="837" y="1050"/>
    </contour>
    <contour>
      <point x="778" y="550" type="curve" smooth="yes"/>
      <point x="778" y="499" type="line" smooth="yes"/>
      <point x="778" y="284"/>
      <point x="717" y="205"/>
      <point x="563" y="205" type="curve" smooth="yes"/>
      <point x="543" y="205" type="line" smooth="yes"/>
      <point x="389" y="205"/>
      <point x="328" y="284"/>
      <point x="328" y="499" type="curve" smooth="yes"/>
      <point x="328" y="550" type="line" smooth="yes"/>
      <point x="328" y="765"/>
      <point x="389" y="845"/>
      <point x="543" y="845" type="curve" smooth="yes"/>
      <point x="563" y="845" type="line" smooth="yes"/>
      <point x="717" y="845"/>
      <point x="778" y="765"/>
    </contour>
  </outline>
</glyph>
<glyph name="latn" format="2">
  <advance width="864"/>
  <outline>
    <contour>
      <point x="112" y="0" type="line"/>
      <point x="372" y="0" type="line"/>
      <point x="372" y="160" type="line"/>
      <point x="112" y="160" type="line"/>
    </contour>
    <contour>
      <point x="112" y="0" type="line"/>
      <point x="276" y="0" type="line"/>
      <point x="276" y="264" type="line"/>
      <point x="112" y="264" type="line"/>
    </contour>
    <contour>
      <point x="112" y="260" type="line"/>
      <point x="276" y="260" type="line"/>
      <point x="276" y="440" type="line"/>
      <point x="112" y="440" type="line"/>
    </contour>
    <contour>
      <point x="492" y="0" type="line"/>
      <point x="752" y="0" type="line"/>
      <point x="752" y="160" type="line"/>
      <point x="492" y="160" type="line"/>
    </contour>
    <contour>
      <point x="588" y="0" type="line"/>
      <point x="752" y="0" type="line"/>
      <point x="752" y="264" type="line"/>
      <point x="588" y="264" type="line"/>
    </contour>
    <contour>
      <point x="588" y="260" type="line"/>
      <point x="752" y="260" type="line"/>
      <point x="752" y="440" type="line"/>
      <point x="588" y="440" type="line"/>
    </contour>
    <contour>
      <point x="16" y="0" type="line"/>
      <point x="276" y="0" type="line"/>
      <point x="276" y="160" type="line"/>
      <point x="16" y="160" type="line"/>
    </contour>
    <contour>
      <point x="588" y="0" type="line"/>
      <point x="848" y="0" type="line"/>
      <point x="848" y="160" type="line"/>
      <point x="588" y="160" type="line"/>
    </contour>
    <contour>
      <point x="112" y="436" type="line"/>
      <point x="276" y="436" type="line"/>
      <point x="276" y="470" type="line" smooth="yes"/>
      <point x="276" y="598"/>
      <point x="314" y="660"/>
      <point x="394" y="660" type="curve" smooth="yes"/>
      <point x="444" y="660" type="line"/>
      <point x="444" y="820" type="line"/>
      <point x="380" y="820" type="line" smooth="yes"/>
      <point x="240" y="820"/>
      <point x="112" y="702"/>
      <point x="112" y="498" type="curve" smooth="yes"/>
    </contour>
    <contour>
      <point x="588" y="436" type="line"/>
      <point x="752" y="436" type="line"/>
      <point x="752" y="498" type="line" smooth="yes"/>
      <point x="752" y="702"/>
      <point x="624" y="820"/>
      <point x="484" y="820" type="curve" smooth="yes"/>
      <point x="420" y="820" type="line"/>
      <point x="420" y="660" type="line"/>
      <point x="470" y="660" type="line" smooth="yes"/>
      <point x="550" y="660"/>
      <point x="588" y="598"/>
      <point x="588" y="470" type="curve" smooth="yes"/>
    </contour>
    <contour>
      <point x="112" y="1230" type="line"/>
      <point x="112" y="456" type="line"/>
      <point x="276" y="456" type="line"/>
      <point x="276" y="1230" type="line"/>
    </contour>
    <contour>
      <point x="16" y="1070" type="line"/>
      <point x="276" y="1070" type="line"/>
      <point x="276" y="1230" type="line"/>
      <point x="16" y="1230" type="line"/>
    </contour>
    <contour>
      <point x="410" y="820" type="line"/>
      <point x="361" y="820" type="line"/>
      <point x="174" y="629" type="line"/>
      <point x="174" y="420" type="line"/>
      <point x="410" y="660" type="line"/>
    </contour>
  </outline>
</glyph>
<glyph name="loopflat" format="2">
  <advance width="1157"/>
  <outline>
    <contour>
      <point x="1039" y="428" type="line"/>
      <point x="778" y="428" type="line" smooth="yes"/>
      <point x="644" y="428"/>
      <point x="453" y="367"/>
      <point x="353" y="195" type="curve"/>
      <point x="563" y="195" type="line"/>
      <point x="577" y="219"/>
      <point x="644" y="243"/>
      <point x="753" y="243" type="curve" smooth="yes"/>
      <point x="753" y="243"/>
      <point x="864" y="243"/>
      <point x="864" y="243" type="curve" smooth="yes"/>
      <point x="864" y="243"/>
      <point x="1039" y="333"/>
      <point x="1039" y="333" type="curve"/>
    </contour>
  </outline>
</glyph>
<glyph name="midE" format="2">
  <advance width="1157"/>
  <outline>
    <contour>
      <point x="829" y="333" type="line"/>
      <point x="1039" y="333" type="line"/>
      <point x="1039" y="717" type="line"/>
      <point x="829" y="717" type="line"/>
    </contour>
  </outline>
</glyph>
<glyph name="midEN" format="2">
  <advance width="1157"/>
  <outline>
    <contour>
      <point x="829" y="525" type="line"/>
      <point x="1039" y="525" type="line"/>
      <point x="1039" y="717" type="line"/>
      <point x="829" y="717" type="line"/>
    </contour>
  </outline>
</glyph>
<glyph name="midN" format="2">
  <advance width="904"/>
  <outline>
    <contour>
      <point x="332" y="660" type="line"/>
      <point x="572" y="660" type="line"/>
      <point x="572" y="820" type="line"/>
      <point x="332" y="820" type="line"/>
    </contour>
  </outline>
</glyph>
<glyph name="midS" format="2">
  <advance width="1157"/>
  <outline>
    <contour>
      <point x="425" y="0" type="line"/>
      <point x="732" y="0" type="line"/>
      <point x="732" y="205" type="line"/>
      <point x="425" y="205" type="line"/>
    </contour>
  </outline>
</glyph>
<glyph name="midW" format="2">
  <advance width="1157"/>
  <outline>
    <contour>
      <point x="118" y="333" type="line"/>
      <point x="328" y="333" type="line"/>
      <point x="328" y="717" type="line"/>
      <point x="118" y="717" type="line"/>
    </contour>
  </outline>
</glyph>
<glyph name="midWN" format="2">
  <advance width="904"/>
  <outline>
    <contour>
      <point x="92" y="410" type="line"/>
      <point x="256" y="410" type="line"/>
      <point x="256" y="560" type="line"/>
      <point x="92" y="560" type="line"/>
    </contour>
  </outline>
</glyph>
<glyph name="midline" format="2">
  <advance width="904"/>
  <outline>
    <contour>
      <point x="92" y="338" type="line"/>
      <point x="812" y="338" type="line"/>
      <point x="812" y="482" type="line"/>
      <point x="92" y="482" type="line"/>
    </contour>
  </outline>
</glyph>
<glyph name="serifE" format="2">
  <advance width="1157"/>
  <outline>
    <contour>
      <point x="829" y="0" type="line"/>
      <point x="1124" y="0" type="line"/>
      <point x="1124" y="205" type="line"/>
      <point x="829" y="205" type="line"/>
    </contour>
  </outline>
</glyph>
<glyph name="serifEN" format="2">
  <advance width="904"/>
  <outline>
    <contour>
      <point x="500" y="436" type="line"/>
      <point x="812" y="436" type="line"/>
      <point x="812" y="580" type="line"/>
      <point x="500" y="580" type="line"/>
    </contour>
  </outline>
</glyph>
<glyph name="serifES" format="2">
  <advance width="1157"/>
  <outline>
    <contour>
      <point x="640" y="307" type="line"/>
      <point x="1039" y="307" type="line"/>
      <point x="1039" y="492" type="line"/>
      <point x="640" y="492" type="line"/>
    </contour>
  </outline>
</glyph>
<glyph name="serifESshort" format="2">
  <advance width="1156"/>
  <outline>
    <contour>
      <point x="719" y="308" type="line"/>
      <point x="1038" y="308" type="line"/>
      <point x="1038" y="492" type="line"/>
      <point x="719" y="492" type="line"/>
    </contour>
  </outline>
</glyph>
<glyph name="serifW" format="2">
  <advance width="904"/>
  <outline>
    <contour>
      <point x="26" y="0" type="line"/>
      <point x="256" y="0" type="line"/>
      <point x="256" y="160" type="line"/>
      <point x="26" y="160" type="line"/>
    </contour>
  </outline>
</glyph>
<glyph name="serifWN" format="2">
  <advance width="904"/>
  <outline>
    <contour>
      <point x="92" y="436" type="line"/>
      <point x="404" y="436" type="line"/>
      <point x="404" y="580" type="line"/>
      <point x="92" y="580" type="line"/>
    </contour>
  </outline>
</glyph>
<glyph name="serifWS" format="2">
  <advance width="1157"/>
  <outline>
    <contour>
      <point x="118" y="307" type="line"/>
      <point x="517" y="307" type="line"/>
      <point x="517" y="492" type="line"/>
      <point x="118" y="492" type="line"/>
    </contour>
  </outline>
</glyph>
<glyph name="sqEN" format="2">
  <advance width="1157"/>
  <outline>
    <contour>
      <point x="829" y="712" type="line"/>
      <point x="1039" y="712" type="line"/>
      <point x="1039" y="1050" type="line"/>
      <point x="829" y="1050" type="line"/>
    </contour>
  </outline>
</glyph>
<glyph name="sqES" format="2">
  <advance width="1157"/>
  <outline>
    <contour>
      <point x="829" y="0" type="line"/>
      <point x="1039" y="0" type="line"/>
      <point x="1039" y="338" type="line"/>
      <point x="829" y="338" type="line"/>
    </contour>
  </outline>
</glyph>
<glyph name="sqNE" format="2">
  <advance width="904"/>
  <outline>
    <contour>
      <point x="532" y="660" type="line"/>
      <point x="812" y="660" type="line"/>
      <point x="812" y="820" type="line"/>
      <point x="532" y="820" type="line"/>
    </contour>
  </outline>
</glyph>
<glyph name="sqNW" format="2">
  <advance width="904"/>
  <outline>
    <contour>
      <point x="92" y="660" type="line"/>
      <point x="372" y="660" type="line"/>
      <point x="372" y="820" type="line"/>
      <point x="92" y="820" type="line"/>
    </contour>
  </outline>
</glyph>
<glyph name="sqSE" format="2">
  <advance width="1157"/>
  <outline>
    <contour>
      <point x="681" y="0" type="line"/>
      <point x="1039" y="0" type="line"/>
      <point x="1039" y="205" type="line"/>
      <point x="681" y="205" type="line"/>
    </contour>
  </outline>
</glyph>
<glyph name="sqSW" format="2">
  <advance width="1157"/>
  <outline>
    <contour>
      <point x="118" y="0" type="line"/>
      <point x="476" y="0" type="line"/>
      <point x="476" y="205" type="line"/>
      <point x="118" y="205" type="line"/>
    </contour>
  </outline>
</glyph>
<glyph name="sqWN" format="2">
  <advance width="904"/>
  <outline>
    <contour>
      <point x="92" y="556" type="line"/>
      <point x="256" y="556" type="line"/>
      <point x="256" y="820" type="line"/>
      <point x="92" y="820" type="line"/>
    </contour>
  </outline>
</glyph>
<glyph name="sqWS" format="2">
  <advance width="1157"/>
  <outline>
    <contour>
      <point x="118" y="0" type="line"/>
      <point x="328" y="0" type="line"/>
      <point x="328" y="338" type="line"/>
      <point x="118" y="338" type="line"/>
    </contour>
  </outline>
</glyph>
<glyph name="squarecomp" format="2">
  <advance width="1157"/>
  <outline>
    <contour>
      <point x="118" y="433" type="line"/>
      <point x="1039" y="433" type="line"/>
      <point x="1039" y="617" type="line"/>
      <point x="118" y="617" type="line"/>
    </contour>
    <contour>
      <point x="118" y="0" type="line"/>
      <point x="476" y="0" type="line"/>
      <point x="476" y="205" type="line"/>
      <point x="118" y="205" type="line"/>
    </contour>
    <contour>
      <point x="118" y="0" type="line"/>
      <point x="328" y="0" type="line"/>
      <point x="328" y="338" type="line"/>
      <point x="118" y="338" type="line"/>
    </contour>
    <contour>
      <point x="425" y="0" type="line"/>
      <point x="732" y="0" type="line"/>
      <point x="732" y="205" type="line"/>
      <point x="425" y="205" type="line"/>
    </contour>
    <contour>
      <point x="118" y="333" type="line"/>
      <point x="328" y="333" type="line"/>
      <point x="328" y="717" type="line"/>
      <point x="118" y="717" type="line"/>
    </contour>
    <contour>
      <point x="681" y="0" type="line"/>
      <point x="1039" y="0" type="line"/>
      <point x="1039" y="205" type="line"/>
      <point x="681" y="205" type="line"/>
    </contour>
    <contour>
      <point x="118" y="712" type="line"/>
      <point x="328" y="712" type="line"/>
      <point x="328" y="1050" type="line"/>
      <point x="118" y="1050" type="line"/>
    </contour>
    <contour>
      <point x="829" y="0" type="line"/>
      <point x="1039" y="0" type="line"/>
      <point x="1039" y="338" type="line"/>
      <point x="829" y="338" type="line"/>
    </contour>
    <contour>
      <point x="118" y="845" type="line"/>
      <point x="476" y="845" type="line"/>
      <point x="476" y="1050" type="line"/>
      <point x="118" y="1050" type="line"/>
    </contour>
    <contour>
      <point x="118" y="947" type="line"/>
      <point x="328" y="947" type="line"/>
      <point x="328" y="1459" type="line"/>
      <point x="118" y="1459" type="line"/>
    </contour>
    <contour>
      <point x="829" y="333" type="line"/>
      <point x="1039" y="333" type="line"/>
      <point x="1039" y="717" type="line"/>
      <point x="829" y="717" type="line"/>
    </contour>
    <contour>
      <point x="425" y="845" type="line"/>
      <point x="732" y="845" type="line"/>
      <point x="732" y="1050" type="line"/>
      <point x="425" y="1050" type="line"/>
    </contour>
    <contour>
      <point x="456" y="1236" type="line"/>
      <point x="456" y="1467" type="line"/>
      <point x="302" y="1574" type="line"/>
      <point x="118" y="1574" type="line"/>
      <point x="118" y="1344" type="line"/>
      <point x="302" y="1344" type="line"/>
    </contour>
    <contour>
      <point x="829" y="712" type="line"/>
      <point x="1039" y="712" type="line"/>
      <point x="1039" y="1050" type="line"/>
      <point x="829" y="1050" type="line"/>
    </contour>
    <contour>
      <point x="681" y="845" type="line"/>
      <point x="1039" y="845" type="line"/>
      <point x="1039" y="1050" type="line"/>
      <point x="681" y="1050" type="line"/>
    </contour>
    <contour>
      <point x="829" y="947" type="line"/>
      <point x="1039" y="947" type="line"/>
      <point x="1039" y="1459" type="line"/>
      <point x="829" y="1459" type="line"/>
    </contour>
    <contour>
      <point x="701" y="1236" type="line"/>
      <point x="855" y="1344" type="line"/>
      <point x="1039" y="1344" type="line"/>
      <point x="1039" y="1574" type="line"/>
      <point x="855" y="1574" type="line"/>
      <point x="701" y="1467" type="line"/>
    </contour>
    <contour>
      <point x="33" y="0" type="line"/>
      <point x="328" y="0" type="line"/>
      <point x="328" y="205" type="line"/>
      <point x="33" y="205" type="line"/>
    </contour>
    <contour>
      <point x="829" y="0" type="line"/>
      <point x="1124" y="0" type="line"/>
      <point x="1124" y="205" type="line"/>
      <point x="829" y="205" type="line"/>
    </contour>
  </outline>
</glyph>
